M48
; DRILL file {KiCad (5.1.4)-1} date 27/02/2021 15:59:56
; FORMAT={-:-/ absolute / inch / decimal}
; #@! TF.CreationDate,2021-02-27T15:59:56-03:00
; #@! TF.GenerationSoftware,Kicad,Pcbnew,(5.1.4)-1
; #@! TF.FileFunction,Plated,1,2,PTH
FMAT,2
INCH
T1C0.0157
T2C0.0394
%
G90
G05
T1
X2.1619Y-2.0769
X2.29Y-2.0733
X2.3993Y-2.815
X2.45Y-2.235
X2.4613Y-2.098
X2.48Y-2.63
X2.5051Y-1.8929
X2.512Y-2.862
X2.55Y-2.9224
X2.5504Y-1.7817
X2.6233Y-1.8093
X2.7376Y-1.7817
X2.7828Y-2.0411
X2.7938Y-1.9686
X2.8201Y-2.9218
X2.8371Y-1.9729
X2.8475Y-1.8775
X2.8646Y-2.0057
X2.8922Y-1.974
X2.905Y-2.9218
X2.916Y-1.757
X2.9246Y-2.0184
X2.9246Y-1.904
X2.9342Y-2.175
X2.9626Y-2.52
X2.9921Y-2.35
X3.0174Y-2.4624
X3.0492Y-2.565
X3.0516Y-2.395
X3.0613Y-2.2176
X3.0801Y-2.5157
X3.1106Y-2.4666
X3.1164Y-2.244
X3.1437Y-2.42
X3.1752Y-2.371
X3.185Y-1.92
X3.206Y-2.3158
X3.25Y-2.28
X3.2858Y-1.92
X3.2933Y-2.4398
X3.2933Y-2.84
X3.3Y-1.85
X3.3087Y-2.975
X3.32Y-2.19
X3.3291Y-2.0325
X3.3369Y-2.5294
X3.3482Y-2.9772
X3.3561Y-1.7674
X3.3777Y-2.5275
X3.385Y-2.81
X3.3881Y-2.9924
X3.3932Y-2.565
X3.4Y-1.9147
X3.4059Y-2.0071
X3.415Y-2.515
X3.4273Y-2.9968
X3.43Y-1.8841
X3.4383Y-1.9237
X3.44Y-2.18
X3.4602Y-2.9752
X3.4634Y-2.5431
X3.468Y-2.822
X3.4965Y-2.5651
X3.4996Y-2.9749
X3.5356Y-2.5698
X3.5552Y-2.8106
X3.57Y-2.976
X3.5706Y-1.8576
X3.58Y-2.575
X3.5956Y-2.815
X3.61Y-1.8576
X3.615Y-2.185
X3.635Y-2.815
X3.655Y-2.2476
X3.685Y-2.815
X3.695Y-2.9
X3.71Y-1.8683
X3.728Y-2.537
X3.73Y-2.815
X3.7749Y-1.8749
X3.78Y-2.8106
X3.7875Y-1.8376
X3.8247Y-1.8248
X3.835Y-2.8263
X3.88Y-2.055
X3.89Y-2.87
X3.8949Y-1.7953
X3.9174Y-2.005
X4.0072Y-2.9638
X4.0088Y-1.93
X4.01Y-2.1
X4.0132Y-3.0482
X4.0433Y-3.022
X4.06Y-2.3869
X4.0822Y-3.0155
X4.125Y-2.9934
X4.15Y-3.08
X4.1643Y-2.9901
X4.2033Y-2.9852
X4.236Y-2.948
X4.265Y-2.5918
X4.33Y-2.9
X4.4324Y-2.47
X4.47Y-2.165
X4.56Y-2.865
X4.61Y-2.625
X4.6295Y-2.5229
X4.66Y-2.49
X4.665Y-2.54
X4.685Y-2.92
X4.7062Y-2.8612
X4.71Y-2.49
X4.8117Y-2.2924
X4.8162Y-1.81
X4.865Y-2.1274
X4.9126Y-2.9717
X4.9593Y-2.83
X5.083Y-2.877
T2
X2.085Y-3.16
X2.185Y-3.16
X2.285Y-3.16
X2.385Y-3.16
X2.485Y-3.16
X2.585Y-3.16
X2.685Y-3.16
X2.785Y-3.16
X2.885Y-3.16
X2.985Y-3.16
X3.085Y-3.16
X3.185Y-3.16
X3.285Y-3.16
X3.385Y-3.16
X3.485Y-3.16
X3.585Y-3.16
X3.685Y-3.16
X3.785Y-3.16
X3.885Y-3.16
X3.985Y-3.16
X4.085Y-3.16
X4.185Y-3.16
X4.285Y-3.16
X4.385Y-3.16
X4.485Y-3.16
X4.585Y-3.16
X4.685Y-3.16
X4.785Y-3.16
X4.885Y-3.16
X4.985Y-3.16
X5.085Y-3.16
X5.185Y-3.16
X2.085Y-3.26
X2.185Y-3.26
X2.285Y-3.26
X2.385Y-3.26
X2.485Y-3.26
X2.585Y-3.26
X2.685Y-3.26
X2.785Y-3.26
X2.885Y-3.26
X2.985Y-3.26
X3.085Y-3.26
X3.185Y-3.26
X3.285Y-3.26
X3.385Y-3.26
X3.485Y-3.26
X3.585Y-3.26
X3.685Y-3.26
X3.785Y-3.26
X3.885Y-3.26
X3.985Y-3.26
X4.085Y-3.26
X4.185Y-3.26
X4.285Y-3.26
X4.385Y-3.26
X4.485Y-3.26
X4.585Y-3.26
X4.685Y-3.26
X4.785Y-3.26
X4.885Y-3.26
X4.985Y-3.26
X5.085Y-3.26
X5.185Y-3.26
T0
M30
