G04 #@! TF.GenerationSoftware,KiCad,Pcbnew,(5.1.4)-1*
G04 #@! TF.CreationDate,2021-02-27T15:59:54-03:00*
G04 #@! TF.ProjectId,OpenDrive-Genesis,4f70656e-4472-4697-9665-2d47656e6573,rev?*
G04 #@! TF.SameCoordinates,Original*
G04 #@! TF.FileFunction,Paste,Bot*
G04 #@! TF.FilePolarity,Positive*
%FSLAX46Y46*%
G04 Gerber Fmt 4.6, Leading zero omitted, Abs format (unit mm)*
G04 Created by KiCad (PCBNEW (5.1.4)-1) date 2021-02-27 15:59:54*
%MOMM*%
%LPD*%
G04 APERTURE LIST*
%ADD10R,0.400000X1.100000*%
%ADD11R,0.650000X1.560000*%
%ADD12C,0.100000*%
%ADD13C,1.150000*%
G04 APERTURE END LIST*
D10*
X107765800Y-73004800D03*
X107115800Y-73004800D03*
X106465800Y-73004800D03*
X105815800Y-73004800D03*
X105165800Y-73004800D03*
X104515800Y-73004800D03*
X103865800Y-73004800D03*
X103215800Y-73004800D03*
X102565800Y-73004800D03*
X101915800Y-73004800D03*
X101265800Y-73004800D03*
X100615800Y-73004800D03*
X100615800Y-67304800D03*
X101265800Y-67304800D03*
X101915800Y-67304800D03*
X102565800Y-67304800D03*
X103215800Y-67304800D03*
X103865800Y-67304800D03*
X104515800Y-67304800D03*
X105165800Y-67304800D03*
X105815800Y-67304800D03*
X106465800Y-67304800D03*
X107115800Y-67304800D03*
X107765800Y-67304800D03*
X84167600Y-73406000D03*
X84817600Y-73406000D03*
X85467600Y-73406000D03*
X86117600Y-73406000D03*
X86767600Y-73406000D03*
X87417600Y-73406000D03*
X88067600Y-73406000D03*
X88717600Y-73406000D03*
X89367600Y-73406000D03*
X90017600Y-73406000D03*
X90667600Y-73406000D03*
X91317600Y-73406000D03*
X91317600Y-67706000D03*
X90667600Y-67706000D03*
X90017600Y-67706000D03*
X89367600Y-67706000D03*
X88717600Y-67706000D03*
X88067600Y-67706000D03*
X87417600Y-67706000D03*
X86767600Y-67706000D03*
X86117600Y-67706000D03*
X85467600Y-67706000D03*
X84817600Y-67706000D03*
X84167600Y-67706000D03*
D11*
X88595000Y-58141000D03*
X90495000Y-58141000D03*
X90495000Y-55441000D03*
X89545000Y-55441000D03*
X88595000Y-55441000D03*
D12*
G36*
X87088505Y-59624204D02*
G01*
X87112773Y-59627804D01*
X87136572Y-59633765D01*
X87159671Y-59642030D01*
X87181850Y-59652520D01*
X87202893Y-59665132D01*
X87222599Y-59679747D01*
X87240777Y-59696223D01*
X87257253Y-59714401D01*
X87271868Y-59734107D01*
X87284480Y-59755150D01*
X87294970Y-59777329D01*
X87303235Y-59800428D01*
X87309196Y-59824227D01*
X87312796Y-59848495D01*
X87314000Y-59872999D01*
X87314000Y-60523001D01*
X87312796Y-60547505D01*
X87309196Y-60571773D01*
X87303235Y-60595572D01*
X87294970Y-60618671D01*
X87284480Y-60640850D01*
X87271868Y-60661893D01*
X87257253Y-60681599D01*
X87240777Y-60699777D01*
X87222599Y-60716253D01*
X87202893Y-60730868D01*
X87181850Y-60743480D01*
X87159671Y-60753970D01*
X87136572Y-60762235D01*
X87112773Y-60768196D01*
X87088505Y-60771796D01*
X87064001Y-60773000D01*
X86163999Y-60773000D01*
X86139495Y-60771796D01*
X86115227Y-60768196D01*
X86091428Y-60762235D01*
X86068329Y-60753970D01*
X86046150Y-60743480D01*
X86025107Y-60730868D01*
X86005401Y-60716253D01*
X85987223Y-60699777D01*
X85970747Y-60681599D01*
X85956132Y-60661893D01*
X85943520Y-60640850D01*
X85933030Y-60618671D01*
X85924765Y-60595572D01*
X85918804Y-60571773D01*
X85915204Y-60547505D01*
X85914000Y-60523001D01*
X85914000Y-59872999D01*
X85915204Y-59848495D01*
X85918804Y-59824227D01*
X85924765Y-59800428D01*
X85933030Y-59777329D01*
X85943520Y-59755150D01*
X85956132Y-59734107D01*
X85970747Y-59714401D01*
X85987223Y-59696223D01*
X86005401Y-59679747D01*
X86025107Y-59665132D01*
X86046150Y-59652520D01*
X86068329Y-59642030D01*
X86091428Y-59633765D01*
X86115227Y-59627804D01*
X86139495Y-59624204D01*
X86163999Y-59623000D01*
X87064001Y-59623000D01*
X87088505Y-59624204D01*
X87088505Y-59624204D01*
G37*
D13*
X86614000Y-60198000D03*
D12*
G36*
X87088505Y-61674204D02*
G01*
X87112773Y-61677804D01*
X87136572Y-61683765D01*
X87159671Y-61692030D01*
X87181850Y-61702520D01*
X87202893Y-61715132D01*
X87222599Y-61729747D01*
X87240777Y-61746223D01*
X87257253Y-61764401D01*
X87271868Y-61784107D01*
X87284480Y-61805150D01*
X87294970Y-61827329D01*
X87303235Y-61850428D01*
X87309196Y-61874227D01*
X87312796Y-61898495D01*
X87314000Y-61922999D01*
X87314000Y-62573001D01*
X87312796Y-62597505D01*
X87309196Y-62621773D01*
X87303235Y-62645572D01*
X87294970Y-62668671D01*
X87284480Y-62690850D01*
X87271868Y-62711893D01*
X87257253Y-62731599D01*
X87240777Y-62749777D01*
X87222599Y-62766253D01*
X87202893Y-62780868D01*
X87181850Y-62793480D01*
X87159671Y-62803970D01*
X87136572Y-62812235D01*
X87112773Y-62818196D01*
X87088505Y-62821796D01*
X87064001Y-62823000D01*
X86163999Y-62823000D01*
X86139495Y-62821796D01*
X86115227Y-62818196D01*
X86091428Y-62812235D01*
X86068329Y-62803970D01*
X86046150Y-62793480D01*
X86025107Y-62780868D01*
X86005401Y-62766253D01*
X85987223Y-62749777D01*
X85970747Y-62731599D01*
X85956132Y-62711893D01*
X85943520Y-62690850D01*
X85933030Y-62668671D01*
X85924765Y-62645572D01*
X85918804Y-62621773D01*
X85915204Y-62597505D01*
X85914000Y-62573001D01*
X85914000Y-61922999D01*
X85915204Y-61898495D01*
X85918804Y-61874227D01*
X85924765Y-61850428D01*
X85933030Y-61827329D01*
X85943520Y-61805150D01*
X85956132Y-61784107D01*
X85970747Y-61764401D01*
X85987223Y-61746223D01*
X86005401Y-61729747D01*
X86025107Y-61715132D01*
X86046150Y-61702520D01*
X86068329Y-61692030D01*
X86091428Y-61683765D01*
X86115227Y-61677804D01*
X86139495Y-61674204D01*
X86163999Y-61673000D01*
X87064001Y-61673000D01*
X87088505Y-61674204D01*
X87088505Y-61674204D01*
G37*
D13*
X86614000Y-62248000D03*
D12*
G36*
X92320905Y-61503804D02*
G01*
X92345173Y-61507404D01*
X92368972Y-61513365D01*
X92392071Y-61521630D01*
X92414250Y-61532120D01*
X92435293Y-61544732D01*
X92454999Y-61559347D01*
X92473177Y-61575823D01*
X92489653Y-61594001D01*
X92504268Y-61613707D01*
X92516880Y-61634750D01*
X92527370Y-61656929D01*
X92535635Y-61680028D01*
X92541596Y-61703827D01*
X92545196Y-61728095D01*
X92546400Y-61752599D01*
X92546400Y-62402601D01*
X92545196Y-62427105D01*
X92541596Y-62451373D01*
X92535635Y-62475172D01*
X92527370Y-62498271D01*
X92516880Y-62520450D01*
X92504268Y-62541493D01*
X92489653Y-62561199D01*
X92473177Y-62579377D01*
X92454999Y-62595853D01*
X92435293Y-62610468D01*
X92414250Y-62623080D01*
X92392071Y-62633570D01*
X92368972Y-62641835D01*
X92345173Y-62647796D01*
X92320905Y-62651396D01*
X92296401Y-62652600D01*
X91396399Y-62652600D01*
X91371895Y-62651396D01*
X91347627Y-62647796D01*
X91323828Y-62641835D01*
X91300729Y-62633570D01*
X91278550Y-62623080D01*
X91257507Y-62610468D01*
X91237801Y-62595853D01*
X91219623Y-62579377D01*
X91203147Y-62561199D01*
X91188532Y-62541493D01*
X91175920Y-62520450D01*
X91165430Y-62498271D01*
X91157165Y-62475172D01*
X91151204Y-62451373D01*
X91147604Y-62427105D01*
X91146400Y-62402601D01*
X91146400Y-61752599D01*
X91147604Y-61728095D01*
X91151204Y-61703827D01*
X91157165Y-61680028D01*
X91165430Y-61656929D01*
X91175920Y-61634750D01*
X91188532Y-61613707D01*
X91203147Y-61594001D01*
X91219623Y-61575823D01*
X91237801Y-61559347D01*
X91257507Y-61544732D01*
X91278550Y-61532120D01*
X91300729Y-61521630D01*
X91323828Y-61513365D01*
X91347627Y-61507404D01*
X91371895Y-61503804D01*
X91396399Y-61502600D01*
X92296401Y-61502600D01*
X92320905Y-61503804D01*
X92320905Y-61503804D01*
G37*
D13*
X91846400Y-62077600D03*
D12*
G36*
X92320905Y-59453804D02*
G01*
X92345173Y-59457404D01*
X92368972Y-59463365D01*
X92392071Y-59471630D01*
X92414250Y-59482120D01*
X92435293Y-59494732D01*
X92454999Y-59509347D01*
X92473177Y-59525823D01*
X92489653Y-59544001D01*
X92504268Y-59563707D01*
X92516880Y-59584750D01*
X92527370Y-59606929D01*
X92535635Y-59630028D01*
X92541596Y-59653827D01*
X92545196Y-59678095D01*
X92546400Y-59702599D01*
X92546400Y-60352601D01*
X92545196Y-60377105D01*
X92541596Y-60401373D01*
X92535635Y-60425172D01*
X92527370Y-60448271D01*
X92516880Y-60470450D01*
X92504268Y-60491493D01*
X92489653Y-60511199D01*
X92473177Y-60529377D01*
X92454999Y-60545853D01*
X92435293Y-60560468D01*
X92414250Y-60573080D01*
X92392071Y-60583570D01*
X92368972Y-60591835D01*
X92345173Y-60597796D01*
X92320905Y-60601396D01*
X92296401Y-60602600D01*
X91396399Y-60602600D01*
X91371895Y-60601396D01*
X91347627Y-60597796D01*
X91323828Y-60591835D01*
X91300729Y-60583570D01*
X91278550Y-60573080D01*
X91257507Y-60560468D01*
X91237801Y-60545853D01*
X91219623Y-60529377D01*
X91203147Y-60511199D01*
X91188532Y-60491493D01*
X91175920Y-60470450D01*
X91165430Y-60448271D01*
X91157165Y-60425172D01*
X91151204Y-60401373D01*
X91147604Y-60377105D01*
X91146400Y-60352601D01*
X91146400Y-59702599D01*
X91147604Y-59678095D01*
X91151204Y-59653827D01*
X91157165Y-59630028D01*
X91165430Y-59606929D01*
X91175920Y-59584750D01*
X91188532Y-59563707D01*
X91203147Y-59544001D01*
X91219623Y-59525823D01*
X91237801Y-59509347D01*
X91257507Y-59494732D01*
X91278550Y-59482120D01*
X91300729Y-59471630D01*
X91323828Y-59463365D01*
X91347627Y-59457404D01*
X91371895Y-59453804D01*
X91396399Y-59452600D01*
X92296401Y-59452600D01*
X92320905Y-59453804D01*
X92320905Y-59453804D01*
G37*
D13*
X91846400Y-60027600D03*
D12*
G36*
X89120505Y-59606204D02*
G01*
X89144773Y-59609804D01*
X89168572Y-59615765D01*
X89191671Y-59624030D01*
X89213850Y-59634520D01*
X89234893Y-59647132D01*
X89254599Y-59661747D01*
X89272777Y-59678223D01*
X89289253Y-59696401D01*
X89303868Y-59716107D01*
X89316480Y-59737150D01*
X89326970Y-59759329D01*
X89335235Y-59782428D01*
X89341196Y-59806227D01*
X89344796Y-59830495D01*
X89346000Y-59854999D01*
X89346000Y-60505001D01*
X89344796Y-60529505D01*
X89341196Y-60553773D01*
X89335235Y-60577572D01*
X89326970Y-60600671D01*
X89316480Y-60622850D01*
X89303868Y-60643893D01*
X89289253Y-60663599D01*
X89272777Y-60681777D01*
X89254599Y-60698253D01*
X89234893Y-60712868D01*
X89213850Y-60725480D01*
X89191671Y-60735970D01*
X89168572Y-60744235D01*
X89144773Y-60750196D01*
X89120505Y-60753796D01*
X89096001Y-60755000D01*
X88195999Y-60755000D01*
X88171495Y-60753796D01*
X88147227Y-60750196D01*
X88123428Y-60744235D01*
X88100329Y-60735970D01*
X88078150Y-60725480D01*
X88057107Y-60712868D01*
X88037401Y-60698253D01*
X88019223Y-60681777D01*
X88002747Y-60663599D01*
X87988132Y-60643893D01*
X87975520Y-60622850D01*
X87965030Y-60600671D01*
X87956765Y-60577572D01*
X87950804Y-60553773D01*
X87947204Y-60529505D01*
X87946000Y-60505001D01*
X87946000Y-59854999D01*
X87947204Y-59830495D01*
X87950804Y-59806227D01*
X87956765Y-59782428D01*
X87965030Y-59759329D01*
X87975520Y-59737150D01*
X87988132Y-59716107D01*
X88002747Y-59696401D01*
X88019223Y-59678223D01*
X88037401Y-59661747D01*
X88057107Y-59647132D01*
X88078150Y-59634520D01*
X88100329Y-59624030D01*
X88123428Y-59615765D01*
X88147227Y-59609804D01*
X88171495Y-59606204D01*
X88195999Y-59605000D01*
X89096001Y-59605000D01*
X89120505Y-59606204D01*
X89120505Y-59606204D01*
G37*
D13*
X88646000Y-60180000D03*
D12*
G36*
X89120505Y-61656204D02*
G01*
X89144773Y-61659804D01*
X89168572Y-61665765D01*
X89191671Y-61674030D01*
X89213850Y-61684520D01*
X89234893Y-61697132D01*
X89254599Y-61711747D01*
X89272777Y-61728223D01*
X89289253Y-61746401D01*
X89303868Y-61766107D01*
X89316480Y-61787150D01*
X89326970Y-61809329D01*
X89335235Y-61832428D01*
X89341196Y-61856227D01*
X89344796Y-61880495D01*
X89346000Y-61904999D01*
X89346000Y-62555001D01*
X89344796Y-62579505D01*
X89341196Y-62603773D01*
X89335235Y-62627572D01*
X89326970Y-62650671D01*
X89316480Y-62672850D01*
X89303868Y-62693893D01*
X89289253Y-62713599D01*
X89272777Y-62731777D01*
X89254599Y-62748253D01*
X89234893Y-62762868D01*
X89213850Y-62775480D01*
X89191671Y-62785970D01*
X89168572Y-62794235D01*
X89144773Y-62800196D01*
X89120505Y-62803796D01*
X89096001Y-62805000D01*
X88195999Y-62805000D01*
X88171495Y-62803796D01*
X88147227Y-62800196D01*
X88123428Y-62794235D01*
X88100329Y-62785970D01*
X88078150Y-62775480D01*
X88057107Y-62762868D01*
X88037401Y-62748253D01*
X88019223Y-62731777D01*
X88002747Y-62713599D01*
X87988132Y-62693893D01*
X87975520Y-62672850D01*
X87965030Y-62650671D01*
X87956765Y-62627572D01*
X87950804Y-62603773D01*
X87947204Y-62579505D01*
X87946000Y-62555001D01*
X87946000Y-61904999D01*
X87947204Y-61880495D01*
X87950804Y-61856227D01*
X87956765Y-61832428D01*
X87965030Y-61809329D01*
X87975520Y-61787150D01*
X87988132Y-61766107D01*
X88002747Y-61746401D01*
X88019223Y-61728223D01*
X88037401Y-61711747D01*
X88057107Y-61697132D01*
X88078150Y-61684520D01*
X88100329Y-61674030D01*
X88123428Y-61665765D01*
X88147227Y-61659804D01*
X88171495Y-61656204D01*
X88195999Y-61655000D01*
X89096001Y-61655000D01*
X89120505Y-61656204D01*
X89120505Y-61656204D01*
G37*
D13*
X88646000Y-62230000D03*
D12*
G36*
X89120505Y-52784204D02*
G01*
X89144773Y-52787804D01*
X89168572Y-52793765D01*
X89191671Y-52802030D01*
X89213850Y-52812520D01*
X89234893Y-52825132D01*
X89254599Y-52839747D01*
X89272777Y-52856223D01*
X89289253Y-52874401D01*
X89303868Y-52894107D01*
X89316480Y-52915150D01*
X89326970Y-52937329D01*
X89335235Y-52960428D01*
X89341196Y-52984227D01*
X89344796Y-53008495D01*
X89346000Y-53032999D01*
X89346000Y-53683001D01*
X89344796Y-53707505D01*
X89341196Y-53731773D01*
X89335235Y-53755572D01*
X89326970Y-53778671D01*
X89316480Y-53800850D01*
X89303868Y-53821893D01*
X89289253Y-53841599D01*
X89272777Y-53859777D01*
X89254599Y-53876253D01*
X89234893Y-53890868D01*
X89213850Y-53903480D01*
X89191671Y-53913970D01*
X89168572Y-53922235D01*
X89144773Y-53928196D01*
X89120505Y-53931796D01*
X89096001Y-53933000D01*
X88195999Y-53933000D01*
X88171495Y-53931796D01*
X88147227Y-53928196D01*
X88123428Y-53922235D01*
X88100329Y-53913970D01*
X88078150Y-53903480D01*
X88057107Y-53890868D01*
X88037401Y-53876253D01*
X88019223Y-53859777D01*
X88002747Y-53841599D01*
X87988132Y-53821893D01*
X87975520Y-53800850D01*
X87965030Y-53778671D01*
X87956765Y-53755572D01*
X87950804Y-53731773D01*
X87947204Y-53707505D01*
X87946000Y-53683001D01*
X87946000Y-53032999D01*
X87947204Y-53008495D01*
X87950804Y-52984227D01*
X87956765Y-52960428D01*
X87965030Y-52937329D01*
X87975520Y-52915150D01*
X87988132Y-52894107D01*
X88002747Y-52874401D01*
X88019223Y-52856223D01*
X88037401Y-52839747D01*
X88057107Y-52825132D01*
X88078150Y-52812520D01*
X88100329Y-52802030D01*
X88123428Y-52793765D01*
X88147227Y-52787804D01*
X88171495Y-52784204D01*
X88195999Y-52783000D01*
X89096001Y-52783000D01*
X89120505Y-52784204D01*
X89120505Y-52784204D01*
G37*
D13*
X88646000Y-53358000D03*
D12*
G36*
X89120505Y-50734204D02*
G01*
X89144773Y-50737804D01*
X89168572Y-50743765D01*
X89191671Y-50752030D01*
X89213850Y-50762520D01*
X89234893Y-50775132D01*
X89254599Y-50789747D01*
X89272777Y-50806223D01*
X89289253Y-50824401D01*
X89303868Y-50844107D01*
X89316480Y-50865150D01*
X89326970Y-50887329D01*
X89335235Y-50910428D01*
X89341196Y-50934227D01*
X89344796Y-50958495D01*
X89346000Y-50982999D01*
X89346000Y-51633001D01*
X89344796Y-51657505D01*
X89341196Y-51681773D01*
X89335235Y-51705572D01*
X89326970Y-51728671D01*
X89316480Y-51750850D01*
X89303868Y-51771893D01*
X89289253Y-51791599D01*
X89272777Y-51809777D01*
X89254599Y-51826253D01*
X89234893Y-51840868D01*
X89213850Y-51853480D01*
X89191671Y-51863970D01*
X89168572Y-51872235D01*
X89144773Y-51878196D01*
X89120505Y-51881796D01*
X89096001Y-51883000D01*
X88195999Y-51883000D01*
X88171495Y-51881796D01*
X88147227Y-51878196D01*
X88123428Y-51872235D01*
X88100329Y-51863970D01*
X88078150Y-51853480D01*
X88057107Y-51840868D01*
X88037401Y-51826253D01*
X88019223Y-51809777D01*
X88002747Y-51791599D01*
X87988132Y-51771893D01*
X87975520Y-51750850D01*
X87965030Y-51728671D01*
X87956765Y-51705572D01*
X87950804Y-51681773D01*
X87947204Y-51657505D01*
X87946000Y-51633001D01*
X87946000Y-50982999D01*
X87947204Y-50958495D01*
X87950804Y-50934227D01*
X87956765Y-50910428D01*
X87965030Y-50887329D01*
X87975520Y-50865150D01*
X87988132Y-50844107D01*
X88002747Y-50824401D01*
X88019223Y-50806223D01*
X88037401Y-50789747D01*
X88057107Y-50775132D01*
X88078150Y-50762520D01*
X88100329Y-50752030D01*
X88123428Y-50743765D01*
X88147227Y-50737804D01*
X88171495Y-50734204D01*
X88195999Y-50733000D01*
X89096001Y-50733000D01*
X89120505Y-50734204D01*
X89120505Y-50734204D01*
G37*
D13*
X88646000Y-51308000D03*
D12*
G36*
X91152505Y-50734204D02*
G01*
X91176773Y-50737804D01*
X91200572Y-50743765D01*
X91223671Y-50752030D01*
X91245850Y-50762520D01*
X91266893Y-50775132D01*
X91286599Y-50789747D01*
X91304777Y-50806223D01*
X91321253Y-50824401D01*
X91335868Y-50844107D01*
X91348480Y-50865150D01*
X91358970Y-50887329D01*
X91367235Y-50910428D01*
X91373196Y-50934227D01*
X91376796Y-50958495D01*
X91378000Y-50982999D01*
X91378000Y-51633001D01*
X91376796Y-51657505D01*
X91373196Y-51681773D01*
X91367235Y-51705572D01*
X91358970Y-51728671D01*
X91348480Y-51750850D01*
X91335868Y-51771893D01*
X91321253Y-51791599D01*
X91304777Y-51809777D01*
X91286599Y-51826253D01*
X91266893Y-51840868D01*
X91245850Y-51853480D01*
X91223671Y-51863970D01*
X91200572Y-51872235D01*
X91176773Y-51878196D01*
X91152505Y-51881796D01*
X91128001Y-51883000D01*
X90227999Y-51883000D01*
X90203495Y-51881796D01*
X90179227Y-51878196D01*
X90155428Y-51872235D01*
X90132329Y-51863970D01*
X90110150Y-51853480D01*
X90089107Y-51840868D01*
X90069401Y-51826253D01*
X90051223Y-51809777D01*
X90034747Y-51791599D01*
X90020132Y-51771893D01*
X90007520Y-51750850D01*
X89997030Y-51728671D01*
X89988765Y-51705572D01*
X89982804Y-51681773D01*
X89979204Y-51657505D01*
X89978000Y-51633001D01*
X89978000Y-50982999D01*
X89979204Y-50958495D01*
X89982804Y-50934227D01*
X89988765Y-50910428D01*
X89997030Y-50887329D01*
X90007520Y-50865150D01*
X90020132Y-50844107D01*
X90034747Y-50824401D01*
X90051223Y-50806223D01*
X90069401Y-50789747D01*
X90089107Y-50775132D01*
X90110150Y-50762520D01*
X90132329Y-50752030D01*
X90155428Y-50743765D01*
X90179227Y-50737804D01*
X90203495Y-50734204D01*
X90227999Y-50733000D01*
X91128001Y-50733000D01*
X91152505Y-50734204D01*
X91152505Y-50734204D01*
G37*
D13*
X90678000Y-51308000D03*
D12*
G36*
X91152505Y-52784204D02*
G01*
X91176773Y-52787804D01*
X91200572Y-52793765D01*
X91223671Y-52802030D01*
X91245850Y-52812520D01*
X91266893Y-52825132D01*
X91286599Y-52839747D01*
X91304777Y-52856223D01*
X91321253Y-52874401D01*
X91335868Y-52894107D01*
X91348480Y-52915150D01*
X91358970Y-52937329D01*
X91367235Y-52960428D01*
X91373196Y-52984227D01*
X91376796Y-53008495D01*
X91378000Y-53032999D01*
X91378000Y-53683001D01*
X91376796Y-53707505D01*
X91373196Y-53731773D01*
X91367235Y-53755572D01*
X91358970Y-53778671D01*
X91348480Y-53800850D01*
X91335868Y-53821893D01*
X91321253Y-53841599D01*
X91304777Y-53859777D01*
X91286599Y-53876253D01*
X91266893Y-53890868D01*
X91245850Y-53903480D01*
X91223671Y-53913970D01*
X91200572Y-53922235D01*
X91176773Y-53928196D01*
X91152505Y-53931796D01*
X91128001Y-53933000D01*
X90227999Y-53933000D01*
X90203495Y-53931796D01*
X90179227Y-53928196D01*
X90155428Y-53922235D01*
X90132329Y-53913970D01*
X90110150Y-53903480D01*
X90089107Y-53890868D01*
X90069401Y-53876253D01*
X90051223Y-53859777D01*
X90034747Y-53841599D01*
X90020132Y-53821893D01*
X90007520Y-53800850D01*
X89997030Y-53778671D01*
X89988765Y-53755572D01*
X89982804Y-53731773D01*
X89979204Y-53707505D01*
X89978000Y-53683001D01*
X89978000Y-53032999D01*
X89979204Y-53008495D01*
X89982804Y-52984227D01*
X89988765Y-52960428D01*
X89997030Y-52937329D01*
X90007520Y-52915150D01*
X90020132Y-52894107D01*
X90034747Y-52874401D01*
X90051223Y-52856223D01*
X90069401Y-52839747D01*
X90089107Y-52825132D01*
X90110150Y-52812520D01*
X90132329Y-52802030D01*
X90155428Y-52793765D01*
X90179227Y-52787804D01*
X90203495Y-52784204D01*
X90227999Y-52783000D01*
X91128001Y-52783000D01*
X91152505Y-52784204D01*
X91152505Y-52784204D01*
G37*
D13*
X90678000Y-53358000D03*
D12*
G36*
X53562505Y-76390204D02*
G01*
X53586773Y-76393804D01*
X53610572Y-76399765D01*
X53633671Y-76408030D01*
X53655850Y-76418520D01*
X53676893Y-76431132D01*
X53696599Y-76445747D01*
X53714777Y-76462223D01*
X53731253Y-76480401D01*
X53745868Y-76500107D01*
X53758480Y-76521150D01*
X53768970Y-76543329D01*
X53777235Y-76566428D01*
X53783196Y-76590227D01*
X53786796Y-76614495D01*
X53788000Y-76638999D01*
X53788000Y-77539001D01*
X53786796Y-77563505D01*
X53783196Y-77587773D01*
X53777235Y-77611572D01*
X53768970Y-77634671D01*
X53758480Y-77656850D01*
X53745868Y-77677893D01*
X53731253Y-77697599D01*
X53714777Y-77715777D01*
X53696599Y-77732253D01*
X53676893Y-77746868D01*
X53655850Y-77759480D01*
X53633671Y-77769970D01*
X53610572Y-77778235D01*
X53586773Y-77784196D01*
X53562505Y-77787796D01*
X53538001Y-77789000D01*
X52887999Y-77789000D01*
X52863495Y-77787796D01*
X52839227Y-77784196D01*
X52815428Y-77778235D01*
X52792329Y-77769970D01*
X52770150Y-77759480D01*
X52749107Y-77746868D01*
X52729401Y-77732253D01*
X52711223Y-77715777D01*
X52694747Y-77697599D01*
X52680132Y-77677893D01*
X52667520Y-77656850D01*
X52657030Y-77634671D01*
X52648765Y-77611572D01*
X52642804Y-77587773D01*
X52639204Y-77563505D01*
X52638000Y-77539001D01*
X52638000Y-76638999D01*
X52639204Y-76614495D01*
X52642804Y-76590227D01*
X52648765Y-76566428D01*
X52657030Y-76543329D01*
X52667520Y-76521150D01*
X52680132Y-76500107D01*
X52694747Y-76480401D01*
X52711223Y-76462223D01*
X52729401Y-76445747D01*
X52749107Y-76431132D01*
X52770150Y-76418520D01*
X52792329Y-76408030D01*
X52815428Y-76399765D01*
X52839227Y-76393804D01*
X52863495Y-76390204D01*
X52887999Y-76389000D01*
X53538001Y-76389000D01*
X53562505Y-76390204D01*
X53562505Y-76390204D01*
G37*
D13*
X53213000Y-77089000D03*
D12*
G36*
X55612505Y-76390204D02*
G01*
X55636773Y-76393804D01*
X55660572Y-76399765D01*
X55683671Y-76408030D01*
X55705850Y-76418520D01*
X55726893Y-76431132D01*
X55746599Y-76445747D01*
X55764777Y-76462223D01*
X55781253Y-76480401D01*
X55795868Y-76500107D01*
X55808480Y-76521150D01*
X55818970Y-76543329D01*
X55827235Y-76566428D01*
X55833196Y-76590227D01*
X55836796Y-76614495D01*
X55838000Y-76638999D01*
X55838000Y-77539001D01*
X55836796Y-77563505D01*
X55833196Y-77587773D01*
X55827235Y-77611572D01*
X55818970Y-77634671D01*
X55808480Y-77656850D01*
X55795868Y-77677893D01*
X55781253Y-77697599D01*
X55764777Y-77715777D01*
X55746599Y-77732253D01*
X55726893Y-77746868D01*
X55705850Y-77759480D01*
X55683671Y-77769970D01*
X55660572Y-77778235D01*
X55636773Y-77784196D01*
X55612505Y-77787796D01*
X55588001Y-77789000D01*
X54937999Y-77789000D01*
X54913495Y-77787796D01*
X54889227Y-77784196D01*
X54865428Y-77778235D01*
X54842329Y-77769970D01*
X54820150Y-77759480D01*
X54799107Y-77746868D01*
X54779401Y-77732253D01*
X54761223Y-77715777D01*
X54744747Y-77697599D01*
X54730132Y-77677893D01*
X54717520Y-77656850D01*
X54707030Y-77634671D01*
X54698765Y-77611572D01*
X54692804Y-77587773D01*
X54689204Y-77563505D01*
X54688000Y-77539001D01*
X54688000Y-76638999D01*
X54689204Y-76614495D01*
X54692804Y-76590227D01*
X54698765Y-76566428D01*
X54707030Y-76543329D01*
X54717520Y-76521150D01*
X54730132Y-76500107D01*
X54744747Y-76480401D01*
X54761223Y-76462223D01*
X54779401Y-76445747D01*
X54799107Y-76431132D01*
X54820150Y-76418520D01*
X54842329Y-76408030D01*
X54865428Y-76399765D01*
X54889227Y-76393804D01*
X54913495Y-76390204D01*
X54937999Y-76389000D01*
X55588001Y-76389000D01*
X55612505Y-76390204D01*
X55612505Y-76390204D01*
G37*
D13*
X55263000Y-77089000D03*
D12*
G36*
X103598505Y-55179204D02*
G01*
X103622773Y-55182804D01*
X103646572Y-55188765D01*
X103669671Y-55197030D01*
X103691850Y-55207520D01*
X103712893Y-55220132D01*
X103732599Y-55234747D01*
X103750777Y-55251223D01*
X103767253Y-55269401D01*
X103781868Y-55289107D01*
X103794480Y-55310150D01*
X103804970Y-55332329D01*
X103813235Y-55355428D01*
X103819196Y-55379227D01*
X103822796Y-55403495D01*
X103824000Y-55427999D01*
X103824000Y-56078001D01*
X103822796Y-56102505D01*
X103819196Y-56126773D01*
X103813235Y-56150572D01*
X103804970Y-56173671D01*
X103794480Y-56195850D01*
X103781868Y-56216893D01*
X103767253Y-56236599D01*
X103750777Y-56254777D01*
X103732599Y-56271253D01*
X103712893Y-56285868D01*
X103691850Y-56298480D01*
X103669671Y-56308970D01*
X103646572Y-56317235D01*
X103622773Y-56323196D01*
X103598505Y-56326796D01*
X103574001Y-56328000D01*
X102673999Y-56328000D01*
X102649495Y-56326796D01*
X102625227Y-56323196D01*
X102601428Y-56317235D01*
X102578329Y-56308970D01*
X102556150Y-56298480D01*
X102535107Y-56285868D01*
X102515401Y-56271253D01*
X102497223Y-56254777D01*
X102480747Y-56236599D01*
X102466132Y-56216893D01*
X102453520Y-56195850D01*
X102443030Y-56173671D01*
X102434765Y-56150572D01*
X102428804Y-56126773D01*
X102425204Y-56102505D01*
X102424000Y-56078001D01*
X102424000Y-55427999D01*
X102425204Y-55403495D01*
X102428804Y-55379227D01*
X102434765Y-55355428D01*
X102443030Y-55332329D01*
X102453520Y-55310150D01*
X102466132Y-55289107D01*
X102480747Y-55269401D01*
X102497223Y-55251223D01*
X102515401Y-55234747D01*
X102535107Y-55220132D01*
X102556150Y-55207520D01*
X102578329Y-55197030D01*
X102601428Y-55188765D01*
X102625227Y-55182804D01*
X102649495Y-55179204D01*
X102673999Y-55178000D01*
X103574001Y-55178000D01*
X103598505Y-55179204D01*
X103598505Y-55179204D01*
G37*
D13*
X103124000Y-55753000D03*
D12*
G36*
X103598505Y-57229204D02*
G01*
X103622773Y-57232804D01*
X103646572Y-57238765D01*
X103669671Y-57247030D01*
X103691850Y-57257520D01*
X103712893Y-57270132D01*
X103732599Y-57284747D01*
X103750777Y-57301223D01*
X103767253Y-57319401D01*
X103781868Y-57339107D01*
X103794480Y-57360150D01*
X103804970Y-57382329D01*
X103813235Y-57405428D01*
X103819196Y-57429227D01*
X103822796Y-57453495D01*
X103824000Y-57477999D01*
X103824000Y-58128001D01*
X103822796Y-58152505D01*
X103819196Y-58176773D01*
X103813235Y-58200572D01*
X103804970Y-58223671D01*
X103794480Y-58245850D01*
X103781868Y-58266893D01*
X103767253Y-58286599D01*
X103750777Y-58304777D01*
X103732599Y-58321253D01*
X103712893Y-58335868D01*
X103691850Y-58348480D01*
X103669671Y-58358970D01*
X103646572Y-58367235D01*
X103622773Y-58373196D01*
X103598505Y-58376796D01*
X103574001Y-58378000D01*
X102673999Y-58378000D01*
X102649495Y-58376796D01*
X102625227Y-58373196D01*
X102601428Y-58367235D01*
X102578329Y-58358970D01*
X102556150Y-58348480D01*
X102535107Y-58335868D01*
X102515401Y-58321253D01*
X102497223Y-58304777D01*
X102480747Y-58286599D01*
X102466132Y-58266893D01*
X102453520Y-58245850D01*
X102443030Y-58223671D01*
X102434765Y-58200572D01*
X102428804Y-58176773D01*
X102425204Y-58152505D01*
X102424000Y-58128001D01*
X102424000Y-57477999D01*
X102425204Y-57453495D01*
X102428804Y-57429227D01*
X102434765Y-57405428D01*
X102443030Y-57382329D01*
X102453520Y-57360150D01*
X102466132Y-57339107D01*
X102480747Y-57319401D01*
X102497223Y-57301223D01*
X102515401Y-57284747D01*
X102535107Y-57270132D01*
X102556150Y-57257520D01*
X102578329Y-57247030D01*
X102601428Y-57238765D01*
X102625227Y-57232804D01*
X102649495Y-57229204D01*
X102673999Y-57228000D01*
X103574001Y-57228000D01*
X103598505Y-57229204D01*
X103598505Y-57229204D01*
G37*
D13*
X103124000Y-57803000D03*
D12*
G36*
X128746505Y-67373204D02*
G01*
X128770773Y-67376804D01*
X128794572Y-67382765D01*
X128817671Y-67391030D01*
X128839850Y-67401520D01*
X128860893Y-67414132D01*
X128880599Y-67428747D01*
X128898777Y-67445223D01*
X128915253Y-67463401D01*
X128929868Y-67483107D01*
X128942480Y-67504150D01*
X128952970Y-67526329D01*
X128961235Y-67549428D01*
X128967196Y-67573227D01*
X128970796Y-67597495D01*
X128972000Y-67621999D01*
X128972000Y-68522001D01*
X128970796Y-68546505D01*
X128967196Y-68570773D01*
X128961235Y-68594572D01*
X128952970Y-68617671D01*
X128942480Y-68639850D01*
X128929868Y-68660893D01*
X128915253Y-68680599D01*
X128898777Y-68698777D01*
X128880599Y-68715253D01*
X128860893Y-68729868D01*
X128839850Y-68742480D01*
X128817671Y-68752970D01*
X128794572Y-68761235D01*
X128770773Y-68767196D01*
X128746505Y-68770796D01*
X128722001Y-68772000D01*
X128071999Y-68772000D01*
X128047495Y-68770796D01*
X128023227Y-68767196D01*
X127999428Y-68761235D01*
X127976329Y-68752970D01*
X127954150Y-68742480D01*
X127933107Y-68729868D01*
X127913401Y-68715253D01*
X127895223Y-68698777D01*
X127878747Y-68680599D01*
X127864132Y-68660893D01*
X127851520Y-68639850D01*
X127841030Y-68617671D01*
X127832765Y-68594572D01*
X127826804Y-68570773D01*
X127823204Y-68546505D01*
X127822000Y-68522001D01*
X127822000Y-67621999D01*
X127823204Y-67597495D01*
X127826804Y-67573227D01*
X127832765Y-67549428D01*
X127841030Y-67526329D01*
X127851520Y-67504150D01*
X127864132Y-67483107D01*
X127878747Y-67463401D01*
X127895223Y-67445223D01*
X127913401Y-67428747D01*
X127933107Y-67414132D01*
X127954150Y-67401520D01*
X127976329Y-67391030D01*
X127999428Y-67382765D01*
X128023227Y-67376804D01*
X128047495Y-67373204D01*
X128071999Y-67372000D01*
X128722001Y-67372000D01*
X128746505Y-67373204D01*
X128746505Y-67373204D01*
G37*
D13*
X128397000Y-68072000D03*
D12*
G36*
X126696505Y-67373204D02*
G01*
X126720773Y-67376804D01*
X126744572Y-67382765D01*
X126767671Y-67391030D01*
X126789850Y-67401520D01*
X126810893Y-67414132D01*
X126830599Y-67428747D01*
X126848777Y-67445223D01*
X126865253Y-67463401D01*
X126879868Y-67483107D01*
X126892480Y-67504150D01*
X126902970Y-67526329D01*
X126911235Y-67549428D01*
X126917196Y-67573227D01*
X126920796Y-67597495D01*
X126922000Y-67621999D01*
X126922000Y-68522001D01*
X126920796Y-68546505D01*
X126917196Y-68570773D01*
X126911235Y-68594572D01*
X126902970Y-68617671D01*
X126892480Y-68639850D01*
X126879868Y-68660893D01*
X126865253Y-68680599D01*
X126848777Y-68698777D01*
X126830599Y-68715253D01*
X126810893Y-68729868D01*
X126789850Y-68742480D01*
X126767671Y-68752970D01*
X126744572Y-68761235D01*
X126720773Y-68767196D01*
X126696505Y-68770796D01*
X126672001Y-68772000D01*
X126021999Y-68772000D01*
X125997495Y-68770796D01*
X125973227Y-68767196D01*
X125949428Y-68761235D01*
X125926329Y-68752970D01*
X125904150Y-68742480D01*
X125883107Y-68729868D01*
X125863401Y-68715253D01*
X125845223Y-68698777D01*
X125828747Y-68680599D01*
X125814132Y-68660893D01*
X125801520Y-68639850D01*
X125791030Y-68617671D01*
X125782765Y-68594572D01*
X125776804Y-68570773D01*
X125773204Y-68546505D01*
X125772000Y-68522001D01*
X125772000Y-67621999D01*
X125773204Y-67597495D01*
X125776804Y-67573227D01*
X125782765Y-67549428D01*
X125791030Y-67526329D01*
X125801520Y-67504150D01*
X125814132Y-67483107D01*
X125828747Y-67463401D01*
X125845223Y-67445223D01*
X125863401Y-67428747D01*
X125883107Y-67414132D01*
X125904150Y-67401520D01*
X125926329Y-67391030D01*
X125949428Y-67382765D01*
X125973227Y-67376804D01*
X125997495Y-67373204D01*
X126021999Y-67372000D01*
X126672001Y-67372000D01*
X126696505Y-67373204D01*
X126696505Y-67373204D01*
G37*
D13*
X126347000Y-68072000D03*
M02*
