G04 #@! TF.GenerationSoftware,KiCad,Pcbnew,(5.1.4)-1*
G04 #@! TF.CreationDate,2021-02-27T03:26:27-03:00*
G04 #@! TF.ProjectId,OpenDrive-Genesis,4f70656e-4472-4697-9665-2d47656e6573,rev?*
G04 #@! TF.SameCoordinates,Original*
G04 #@! TF.FileFunction,Legend,Top*
G04 #@! TF.FilePolarity,Positive*
%FSLAX46Y46*%
G04 Gerber Fmt 4.6, Leading zero omitted, Abs format (unit mm)*
G04 Created by KiCad (PCBNEW (5.1.4)-1) date 2021-02-27 03:26:27*
%MOMM*%
%LPD*%
G04 APERTURE LIST*
%ADD10C,0.150000*%
%ADD11C,0.010000*%
%ADD12C,0.120000*%
%ADD13C,0.125000*%
G04 APERTURE END LIST*
D10*
X89229000Y-47495666D02*
X89695666Y-47495666D01*
X89395666Y-48195666D01*
X90262333Y-47729000D02*
X90262333Y-48195666D01*
X90095666Y-47462333D02*
X89929000Y-47962333D01*
X90362333Y-47962333D01*
X90962333Y-48195666D02*
X90629000Y-48195666D01*
X90629000Y-47495666D01*
X91095666Y-47495666D02*
X91329000Y-48195666D01*
X91562333Y-47495666D01*
X92195666Y-48129000D02*
X92162333Y-48162333D01*
X92062333Y-48195666D01*
X91995666Y-48195666D01*
X91895666Y-48162333D01*
X91829000Y-48095666D01*
X91795666Y-48029000D01*
X91762333Y-47895666D01*
X91762333Y-47795666D01*
X91795666Y-47662333D01*
X91829000Y-47595666D01*
X91895666Y-47529000D01*
X91995666Y-47495666D01*
X92062333Y-47495666D01*
X92162333Y-47529000D01*
X92195666Y-47562333D01*
X92595666Y-47795666D02*
X92529000Y-47762333D01*
X92495666Y-47729000D01*
X92462333Y-47662333D01*
X92462333Y-47629000D01*
X92495666Y-47562333D01*
X92529000Y-47529000D01*
X92595666Y-47495666D01*
X92729000Y-47495666D01*
X92795666Y-47529000D01*
X92829000Y-47562333D01*
X92862333Y-47629000D01*
X92862333Y-47662333D01*
X92829000Y-47729000D01*
X92795666Y-47762333D01*
X92729000Y-47795666D01*
X92595666Y-47795666D01*
X92529000Y-47829000D01*
X92495666Y-47862333D01*
X92462333Y-47929000D01*
X92462333Y-48062333D01*
X92495666Y-48129000D01*
X92529000Y-48162333D01*
X92595666Y-48195666D01*
X92729000Y-48195666D01*
X92795666Y-48162333D01*
X92829000Y-48129000D01*
X92862333Y-48062333D01*
X92862333Y-47929000D01*
X92829000Y-47862333D01*
X92795666Y-47829000D01*
X92729000Y-47795666D01*
X93062333Y-47495666D02*
X93462333Y-47495666D01*
X93262333Y-48195666D02*
X93262333Y-47495666D01*
X93662333Y-47562333D02*
X93695666Y-47529000D01*
X93762333Y-47495666D01*
X93929000Y-47495666D01*
X93995666Y-47529000D01*
X94029000Y-47562333D01*
X94062333Y-47629000D01*
X94062333Y-47695666D01*
X94029000Y-47795666D01*
X93629000Y-48195666D01*
X94062333Y-48195666D01*
X94662333Y-47729000D02*
X94662333Y-48195666D01*
X94495666Y-47462333D02*
X94329000Y-47962333D01*
X94762333Y-47962333D01*
X95362333Y-47495666D02*
X95029000Y-47495666D01*
X94995666Y-47829000D01*
X95029000Y-47795666D01*
X95095666Y-47762333D01*
X95262333Y-47762333D01*
X95329000Y-47795666D01*
X95362333Y-47829000D01*
X95395666Y-47895666D01*
X95395666Y-48062333D01*
X95362333Y-48129000D01*
X95329000Y-48162333D01*
X95262333Y-48195666D01*
X95095666Y-48195666D01*
X95029000Y-48162333D01*
X94995666Y-48129000D01*
X76656000Y-47495666D02*
X77122666Y-47495666D01*
X76822666Y-48195666D01*
X77689333Y-47729000D02*
X77689333Y-48195666D01*
X77522666Y-47462333D02*
X77356000Y-47962333D01*
X77789333Y-47962333D01*
X78389333Y-48195666D02*
X78056000Y-48195666D01*
X78056000Y-47495666D01*
X78522666Y-47495666D02*
X78756000Y-48195666D01*
X78989333Y-47495666D01*
X79622666Y-48129000D02*
X79589333Y-48162333D01*
X79489333Y-48195666D01*
X79422666Y-48195666D01*
X79322666Y-48162333D01*
X79256000Y-48095666D01*
X79222666Y-48029000D01*
X79189333Y-47895666D01*
X79189333Y-47795666D01*
X79222666Y-47662333D01*
X79256000Y-47595666D01*
X79322666Y-47529000D01*
X79422666Y-47495666D01*
X79489333Y-47495666D01*
X79589333Y-47529000D01*
X79622666Y-47562333D01*
X80022666Y-47795666D02*
X79956000Y-47762333D01*
X79922666Y-47729000D01*
X79889333Y-47662333D01*
X79889333Y-47629000D01*
X79922666Y-47562333D01*
X79956000Y-47529000D01*
X80022666Y-47495666D01*
X80156000Y-47495666D01*
X80222666Y-47529000D01*
X80256000Y-47562333D01*
X80289333Y-47629000D01*
X80289333Y-47662333D01*
X80256000Y-47729000D01*
X80222666Y-47762333D01*
X80156000Y-47795666D01*
X80022666Y-47795666D01*
X79956000Y-47829000D01*
X79922666Y-47862333D01*
X79889333Y-47929000D01*
X79889333Y-48062333D01*
X79922666Y-48129000D01*
X79956000Y-48162333D01*
X80022666Y-48195666D01*
X80156000Y-48195666D01*
X80222666Y-48162333D01*
X80256000Y-48129000D01*
X80289333Y-48062333D01*
X80289333Y-47929000D01*
X80256000Y-47862333D01*
X80222666Y-47829000D01*
X80156000Y-47795666D01*
X80489333Y-47495666D02*
X80889333Y-47495666D01*
X80689333Y-48195666D02*
X80689333Y-47495666D01*
X81089333Y-47562333D02*
X81122666Y-47529000D01*
X81189333Y-47495666D01*
X81356000Y-47495666D01*
X81422666Y-47529000D01*
X81456000Y-47562333D01*
X81489333Y-47629000D01*
X81489333Y-47695666D01*
X81456000Y-47795666D01*
X81056000Y-48195666D01*
X81489333Y-48195666D01*
X82089333Y-47729000D02*
X82089333Y-48195666D01*
X81922666Y-47462333D02*
X81756000Y-47962333D01*
X82189333Y-47962333D01*
X82789333Y-47495666D02*
X82456000Y-47495666D01*
X82422666Y-47829000D01*
X82456000Y-47795666D01*
X82522666Y-47762333D01*
X82689333Y-47762333D01*
X82756000Y-47795666D01*
X82789333Y-47829000D01*
X82822666Y-47895666D01*
X82822666Y-48062333D01*
X82789333Y-48129000D01*
X82756000Y-48162333D01*
X82689333Y-48195666D01*
X82522666Y-48195666D01*
X82456000Y-48162333D01*
X82422666Y-48129000D01*
X73867238Y-72224380D02*
X74057714Y-72224380D01*
X74152952Y-72272000D01*
X74248190Y-72367238D01*
X74295809Y-72557714D01*
X74295809Y-72891047D01*
X74248190Y-73081523D01*
X74152952Y-73176761D01*
X74057714Y-73224380D01*
X73867238Y-73224380D01*
X73772000Y-73176761D01*
X73676761Y-73081523D01*
X73629142Y-72891047D01*
X73629142Y-72557714D01*
X73676761Y-72367238D01*
X73772000Y-72272000D01*
X73867238Y-72224380D01*
X74724380Y-72557714D02*
X74724380Y-73557714D01*
X74724380Y-72605333D02*
X74819619Y-72557714D01*
X75010095Y-72557714D01*
X75105333Y-72605333D01*
X75152952Y-72652952D01*
X75200571Y-72748190D01*
X75200571Y-73033904D01*
X75152952Y-73129142D01*
X75105333Y-73176761D01*
X75010095Y-73224380D01*
X74819619Y-73224380D01*
X74724380Y-73176761D01*
X76010095Y-73176761D02*
X75914857Y-73224380D01*
X75724380Y-73224380D01*
X75629142Y-73176761D01*
X75581523Y-73081523D01*
X75581523Y-72700571D01*
X75629142Y-72605333D01*
X75724380Y-72557714D01*
X75914857Y-72557714D01*
X76010095Y-72605333D01*
X76057714Y-72700571D01*
X76057714Y-72795809D01*
X75581523Y-72891047D01*
X76486285Y-72557714D02*
X76486285Y-73224380D01*
X76486285Y-72652952D02*
X76533904Y-72605333D01*
X76629142Y-72557714D01*
X76772000Y-72557714D01*
X76867238Y-72605333D01*
X76914857Y-72700571D01*
X76914857Y-73224380D01*
X77391047Y-73224380D02*
X77391047Y-72224380D01*
X77629142Y-72224380D01*
X77772000Y-72272000D01*
X77867238Y-72367238D01*
X77914857Y-72462476D01*
X77962476Y-72652952D01*
X77962476Y-72795809D01*
X77914857Y-72986285D01*
X77867238Y-73081523D01*
X77772000Y-73176761D01*
X77629142Y-73224380D01*
X77391047Y-73224380D01*
X78391047Y-73224380D02*
X78391047Y-72557714D01*
X78391047Y-72748190D02*
X78438666Y-72652952D01*
X78486285Y-72605333D01*
X78581523Y-72557714D01*
X78676761Y-72557714D01*
X79010095Y-73224380D02*
X79010095Y-72557714D01*
X79010095Y-72224380D02*
X78962476Y-72272000D01*
X79010095Y-72319619D01*
X79057714Y-72272000D01*
X79010095Y-72224380D01*
X79010095Y-72319619D01*
X79391047Y-72557714D02*
X79629142Y-73224380D01*
X79867238Y-72557714D01*
X80629142Y-73176761D02*
X80533904Y-73224380D01*
X80343428Y-73224380D01*
X80248190Y-73176761D01*
X80200571Y-73081523D01*
X80200571Y-72700571D01*
X80248190Y-72605333D01*
X80343428Y-72557714D01*
X80533904Y-72557714D01*
X80629142Y-72605333D01*
X80676761Y-72700571D01*
X80676761Y-72795809D01*
X80200571Y-72891047D01*
X82200571Y-72700571D02*
X81867238Y-72700571D01*
X81867238Y-73224380D02*
X81867238Y-72224380D01*
X82343428Y-72224380D01*
X82867238Y-73224380D02*
X82772000Y-73176761D01*
X82724380Y-73081523D01*
X82724380Y-72224380D01*
X83676761Y-73224380D02*
X83676761Y-72700571D01*
X83629142Y-72605333D01*
X83533904Y-72557714D01*
X83343428Y-72557714D01*
X83248190Y-72605333D01*
X83676761Y-73176761D02*
X83581523Y-73224380D01*
X83343428Y-73224380D01*
X83248190Y-73176761D01*
X83200571Y-73081523D01*
X83200571Y-72986285D01*
X83248190Y-72891047D01*
X83343428Y-72843428D01*
X83581523Y-72843428D01*
X83676761Y-72795809D01*
X84105333Y-73176761D02*
X84200571Y-73224380D01*
X84391047Y-73224380D01*
X84486285Y-73176761D01*
X84533904Y-73081523D01*
X84533904Y-73033904D01*
X84486285Y-72938666D01*
X84391047Y-72891047D01*
X84248190Y-72891047D01*
X84152952Y-72843428D01*
X84105333Y-72748190D01*
X84105333Y-72700571D01*
X84152952Y-72605333D01*
X84248190Y-72557714D01*
X84391047Y-72557714D01*
X84486285Y-72605333D01*
X84962476Y-73224380D02*
X84962476Y-72224380D01*
X85391047Y-73224380D02*
X85391047Y-72700571D01*
X85343428Y-72605333D01*
X85248190Y-72557714D01*
X85105333Y-72557714D01*
X85010095Y-72605333D01*
X84962476Y-72652952D01*
X86533904Y-72557714D02*
X86772000Y-73224380D01*
X87010095Y-72557714D01*
X87343428Y-72319619D02*
X87391047Y-72272000D01*
X87486285Y-72224380D01*
X87724380Y-72224380D01*
X87819619Y-72272000D01*
X87867238Y-72319619D01*
X87914857Y-72414857D01*
X87914857Y-72510095D01*
X87867238Y-72652952D01*
X87295809Y-73224380D01*
X87914857Y-73224380D01*
X76605333Y-74826761D02*
X76748190Y-74874380D01*
X76986285Y-74874380D01*
X77081523Y-74826761D01*
X77129142Y-74779142D01*
X77176761Y-74683904D01*
X77176761Y-74588666D01*
X77129142Y-74493428D01*
X77081523Y-74445809D01*
X76986285Y-74398190D01*
X76795809Y-74350571D01*
X76700571Y-74302952D01*
X76652952Y-74255333D01*
X76605333Y-74160095D01*
X76605333Y-74064857D01*
X76652952Y-73969619D01*
X76700571Y-73922000D01*
X76795809Y-73874380D01*
X77033904Y-73874380D01*
X77176761Y-73922000D01*
X77748190Y-74874380D02*
X77652952Y-74826761D01*
X77605333Y-74779142D01*
X77557714Y-74683904D01*
X77557714Y-74398190D01*
X77605333Y-74302952D01*
X77652952Y-74255333D01*
X77748190Y-74207714D01*
X77891047Y-74207714D01*
X77986285Y-74255333D01*
X78033904Y-74302952D01*
X78081523Y-74398190D01*
X78081523Y-74683904D01*
X78033904Y-74779142D01*
X77986285Y-74826761D01*
X77891047Y-74874380D01*
X77748190Y-74874380D01*
X78510095Y-74207714D02*
X78510095Y-74874380D01*
X78510095Y-74302952D02*
X78557714Y-74255333D01*
X78652952Y-74207714D01*
X78795809Y-74207714D01*
X78891047Y-74255333D01*
X78938666Y-74350571D01*
X78938666Y-74874380D01*
X79414857Y-74874380D02*
X79414857Y-74207714D01*
X79414857Y-73874380D02*
X79367238Y-73922000D01*
X79414857Y-73969619D01*
X79462476Y-73922000D01*
X79414857Y-73874380D01*
X79414857Y-73969619D01*
X80319619Y-74826761D02*
X80224380Y-74874380D01*
X80033904Y-74874380D01*
X79938666Y-74826761D01*
X79891047Y-74779142D01*
X79843428Y-74683904D01*
X79843428Y-74398190D01*
X79891047Y-74302952D01*
X79938666Y-74255333D01*
X80033904Y-74207714D01*
X80224380Y-74207714D01*
X80319619Y-74255333D01*
X81176761Y-74826761D02*
X81081523Y-74874380D01*
X80891047Y-74874380D01*
X80795809Y-74826761D01*
X80748190Y-74779142D01*
X80700571Y-74683904D01*
X80700571Y-74398190D01*
X80748190Y-74302952D01*
X80795809Y-74255333D01*
X80891047Y-74207714D01*
X81081523Y-74207714D01*
X81176761Y-74255333D01*
X82033904Y-74874380D02*
X82033904Y-73874380D01*
X82033904Y-74826761D02*
X81938666Y-74874380D01*
X81748190Y-74874380D01*
X81652952Y-74826761D01*
X81605333Y-74779142D01*
X81557714Y-74683904D01*
X81557714Y-74398190D01*
X81605333Y-74302952D01*
X81652952Y-74255333D01*
X81748190Y-74207714D01*
X81938666Y-74207714D01*
X82033904Y-74255333D01*
X83033904Y-74874380D02*
X82462476Y-74874380D01*
X82748190Y-74874380D02*
X82748190Y-73874380D01*
X82652952Y-74017238D01*
X82557714Y-74112476D01*
X82462476Y-74160095D01*
X83414857Y-73969619D02*
X83462476Y-73922000D01*
X83557714Y-73874380D01*
X83795809Y-73874380D01*
X83891047Y-73922000D01*
X83938666Y-73969619D01*
X83986285Y-74064857D01*
X83986285Y-74160095D01*
X83938666Y-74302952D01*
X83367238Y-74874380D01*
X83986285Y-74874380D01*
X84319619Y-73874380D02*
X84938666Y-73874380D01*
X84605333Y-74255333D01*
X84748190Y-74255333D01*
X84843428Y-74302952D01*
X84891047Y-74350571D01*
X84938666Y-74445809D01*
X84938666Y-74683904D01*
X84891047Y-74779142D01*
X84843428Y-74826761D01*
X84748190Y-74874380D01*
X84462476Y-74874380D01*
X84367238Y-74826761D01*
X84319619Y-74779142D01*
X79057714Y-75619619D02*
X79105333Y-75572000D01*
X79200571Y-75524380D01*
X79438666Y-75524380D01*
X79533904Y-75572000D01*
X79581523Y-75619619D01*
X79629142Y-75714857D01*
X79629142Y-75810095D01*
X79581523Y-75952952D01*
X79010095Y-76524380D01*
X79629142Y-76524380D01*
X80248190Y-75524380D02*
X80343428Y-75524380D01*
X80438666Y-75572000D01*
X80486285Y-75619619D01*
X80533904Y-75714857D01*
X80581523Y-75905333D01*
X80581523Y-76143428D01*
X80533904Y-76333904D01*
X80486285Y-76429142D01*
X80438666Y-76476761D01*
X80343428Y-76524380D01*
X80248190Y-76524380D01*
X80152952Y-76476761D01*
X80105333Y-76429142D01*
X80057714Y-76333904D01*
X80010095Y-76143428D01*
X80010095Y-75905333D01*
X80057714Y-75714857D01*
X80105333Y-75619619D01*
X80152952Y-75572000D01*
X80248190Y-75524380D01*
X80962476Y-75619619D02*
X81010095Y-75572000D01*
X81105333Y-75524380D01*
X81343428Y-75524380D01*
X81438666Y-75572000D01*
X81486285Y-75619619D01*
X81533904Y-75714857D01*
X81533904Y-75810095D01*
X81486285Y-75952952D01*
X80914857Y-76524380D01*
X81533904Y-76524380D01*
X82152952Y-75524380D02*
X82248190Y-75524380D01*
X82343428Y-75572000D01*
X82391047Y-75619619D01*
X82438666Y-75714857D01*
X82486285Y-75905333D01*
X82486285Y-76143428D01*
X82438666Y-76333904D01*
X82391047Y-76429142D01*
X82343428Y-76476761D01*
X82248190Y-76524380D01*
X82152952Y-76524380D01*
X82057714Y-76476761D01*
X82010095Y-76429142D01*
X81962476Y-76333904D01*
X81914857Y-76143428D01*
X81914857Y-75905333D01*
X81962476Y-75714857D01*
X82010095Y-75619619D01*
X82057714Y-75572000D01*
X82152952Y-75524380D01*
X63167466Y-53798400D02*
X63167466Y-53331733D01*
X63867466Y-53631733D01*
X63400800Y-52765066D02*
X63867466Y-52765066D01*
X63134133Y-52931733D02*
X63634133Y-53098400D01*
X63634133Y-52665066D01*
X63867466Y-52065066D02*
X63867466Y-52398400D01*
X63167466Y-52398400D01*
X63167466Y-51931733D02*
X63867466Y-51698400D01*
X63167466Y-51465066D01*
X63800800Y-50831733D02*
X63834133Y-50865066D01*
X63867466Y-50965066D01*
X63867466Y-51031733D01*
X63834133Y-51131733D01*
X63767466Y-51198400D01*
X63700800Y-51231733D01*
X63567466Y-51265066D01*
X63467466Y-51265066D01*
X63334133Y-51231733D01*
X63267466Y-51198400D01*
X63200800Y-51131733D01*
X63167466Y-51031733D01*
X63167466Y-50965066D01*
X63200800Y-50865066D01*
X63234133Y-50831733D01*
X63467466Y-50431733D02*
X63434133Y-50498400D01*
X63400800Y-50531733D01*
X63334133Y-50565066D01*
X63300800Y-50565066D01*
X63234133Y-50531733D01*
X63200800Y-50498400D01*
X63167466Y-50431733D01*
X63167466Y-50298400D01*
X63200800Y-50231733D01*
X63234133Y-50198400D01*
X63300800Y-50165066D01*
X63334133Y-50165066D01*
X63400800Y-50198400D01*
X63434133Y-50231733D01*
X63467466Y-50298400D01*
X63467466Y-50431733D01*
X63500800Y-50498400D01*
X63534133Y-50531733D01*
X63600800Y-50565066D01*
X63734133Y-50565066D01*
X63800800Y-50531733D01*
X63834133Y-50498400D01*
X63867466Y-50431733D01*
X63867466Y-50298400D01*
X63834133Y-50231733D01*
X63800800Y-50198400D01*
X63734133Y-50165066D01*
X63600800Y-50165066D01*
X63534133Y-50198400D01*
X63500800Y-50231733D01*
X63467466Y-50298400D01*
X63167466Y-49965066D02*
X63167466Y-49565066D01*
X63867466Y-49765066D02*
X63167466Y-49765066D01*
X63234133Y-49365066D02*
X63200800Y-49331733D01*
X63167466Y-49265066D01*
X63167466Y-49098400D01*
X63200800Y-49031733D01*
X63234133Y-48998400D01*
X63300800Y-48965066D01*
X63367466Y-48965066D01*
X63467466Y-48998400D01*
X63867466Y-49398400D01*
X63867466Y-48965066D01*
X63400800Y-48365066D02*
X63867466Y-48365066D01*
X63134133Y-48531733D02*
X63634133Y-48698400D01*
X63634133Y-48265066D01*
X63167466Y-47665066D02*
X63167466Y-47998400D01*
X63500800Y-48031733D01*
X63467466Y-47998400D01*
X63434133Y-47931733D01*
X63434133Y-47765066D01*
X63467466Y-47698400D01*
X63500800Y-47665066D01*
X63567466Y-47631733D01*
X63734133Y-47631733D01*
X63800800Y-47665066D01*
X63834133Y-47698400D01*
X63867466Y-47765066D01*
X63867466Y-47931733D01*
X63834133Y-47998400D01*
X63800800Y-48031733D01*
X109045666Y-65333571D02*
X108712333Y-65333571D01*
X108712333Y-65857380D02*
X108712333Y-64857380D01*
X109188523Y-64857380D01*
X109569476Y-65857380D02*
X109569476Y-64857380D01*
X109902809Y-65571666D01*
X110236142Y-64857380D01*
X110236142Y-65857380D01*
X111236142Y-65857380D02*
X110664714Y-65857380D01*
X110950428Y-65857380D02*
X110950428Y-64857380D01*
X110855190Y-65000238D01*
X110759952Y-65095476D01*
X110664714Y-65143095D01*
X111807571Y-65285952D02*
X111712333Y-65238333D01*
X111664714Y-65190714D01*
X111617095Y-65095476D01*
X111617095Y-65047857D01*
X111664714Y-64952619D01*
X111712333Y-64905000D01*
X111807571Y-64857380D01*
X111998047Y-64857380D01*
X112093285Y-64905000D01*
X112140904Y-64952619D01*
X112188523Y-65047857D01*
X112188523Y-65095476D01*
X112140904Y-65190714D01*
X112093285Y-65238333D01*
X111998047Y-65285952D01*
X111807571Y-65285952D01*
X111712333Y-65333571D01*
X111664714Y-65381190D01*
X111617095Y-65476428D01*
X111617095Y-65666904D01*
X111664714Y-65762142D01*
X111712333Y-65809761D01*
X111807571Y-65857380D01*
X111998047Y-65857380D01*
X112093285Y-65809761D01*
X112140904Y-65762142D01*
X112188523Y-65666904D01*
X112188523Y-65476428D01*
X112140904Y-65381190D01*
X112093285Y-65333571D01*
X111998047Y-65285952D01*
X112807571Y-64857380D02*
X112902809Y-64857380D01*
X112998047Y-64905000D01*
X113045666Y-64952619D01*
X113093285Y-65047857D01*
X113140904Y-65238333D01*
X113140904Y-65476428D01*
X113093285Y-65666904D01*
X113045666Y-65762142D01*
X112998047Y-65809761D01*
X112902809Y-65857380D01*
X112807571Y-65857380D01*
X112712333Y-65809761D01*
X112664714Y-65762142D01*
X112617095Y-65666904D01*
X112569476Y-65476428D01*
X112569476Y-65238333D01*
X112617095Y-65047857D01*
X112664714Y-64952619D01*
X112712333Y-64905000D01*
X112807571Y-64857380D01*
X113712333Y-65285952D02*
X113617095Y-65238333D01*
X113569476Y-65190714D01*
X113521857Y-65095476D01*
X113521857Y-65047857D01*
X113569476Y-64952619D01*
X113617095Y-64905000D01*
X113712333Y-64857380D01*
X113902809Y-64857380D01*
X113998047Y-64905000D01*
X114045666Y-64952619D01*
X114093285Y-65047857D01*
X114093285Y-65095476D01*
X114045666Y-65190714D01*
X113998047Y-65238333D01*
X113902809Y-65285952D01*
X113712333Y-65285952D01*
X113617095Y-65333571D01*
X113569476Y-65381190D01*
X113521857Y-65476428D01*
X113521857Y-65666904D01*
X113569476Y-65762142D01*
X113617095Y-65809761D01*
X113712333Y-65857380D01*
X113902809Y-65857380D01*
X113998047Y-65809761D01*
X114045666Y-65762142D01*
X114093285Y-65666904D01*
X114093285Y-65476428D01*
X114045666Y-65381190D01*
X113998047Y-65333571D01*
X113902809Y-65285952D01*
X81002571Y-61269619D02*
X81050190Y-61222000D01*
X81145428Y-61174380D01*
X81383523Y-61174380D01*
X81478761Y-61222000D01*
X81526380Y-61269619D01*
X81574000Y-61364857D01*
X81574000Y-61460095D01*
X81526380Y-61602952D01*
X80954952Y-62174380D01*
X81574000Y-62174380D01*
X82050190Y-62174380D02*
X82240666Y-62174380D01*
X82335904Y-62126761D01*
X82383523Y-62079142D01*
X82478761Y-61936285D01*
X82526380Y-61745809D01*
X82526380Y-61364857D01*
X82478761Y-61269619D01*
X82431142Y-61222000D01*
X82335904Y-61174380D01*
X82145428Y-61174380D01*
X82050190Y-61222000D01*
X82002571Y-61269619D01*
X81954952Y-61364857D01*
X81954952Y-61602952D01*
X82002571Y-61698190D01*
X82050190Y-61745809D01*
X82145428Y-61793428D01*
X82335904Y-61793428D01*
X82431142Y-61745809D01*
X82478761Y-61698190D01*
X82526380Y-61602952D01*
X83431142Y-62174380D02*
X82954952Y-62174380D01*
X82954952Y-61174380D01*
X83669238Y-61174380D02*
X84288285Y-61174380D01*
X83954952Y-61555333D01*
X84097809Y-61555333D01*
X84193047Y-61602952D01*
X84240666Y-61650571D01*
X84288285Y-61745809D01*
X84288285Y-61983904D01*
X84240666Y-62079142D01*
X84193047Y-62126761D01*
X84097809Y-62174380D01*
X83812095Y-62174380D01*
X83716857Y-62126761D01*
X83669238Y-62079142D01*
X84669238Y-61269619D02*
X84716857Y-61222000D01*
X84812095Y-61174380D01*
X85050190Y-61174380D01*
X85145428Y-61222000D01*
X85193047Y-61269619D01*
X85240666Y-61364857D01*
X85240666Y-61460095D01*
X85193047Y-61602952D01*
X84621619Y-62174380D01*
X85240666Y-62174380D01*
X86193047Y-62174380D02*
X85621619Y-62174380D01*
X85907333Y-62174380D02*
X85907333Y-61174380D01*
X85812095Y-61317238D01*
X85716857Y-61412476D01*
X85621619Y-61460095D01*
X87145428Y-62174380D02*
X86574000Y-62174380D01*
X86859714Y-62174380D02*
X86859714Y-61174380D01*
X86764476Y-61317238D01*
X86669238Y-61412476D01*
X86574000Y-61460095D01*
X61000095Y-66127380D02*
X61666761Y-66127380D01*
X61238190Y-67127380D01*
X62476285Y-66460714D02*
X62476285Y-67127380D01*
X62238190Y-66079761D02*
X62000095Y-66794047D01*
X62619142Y-66794047D01*
X63000095Y-67127380D02*
X63000095Y-66127380D01*
X63000095Y-66603571D02*
X63571523Y-66603571D01*
X63571523Y-67127380D02*
X63571523Y-66127380D01*
X64619142Y-67032142D02*
X64571523Y-67079761D01*
X64428666Y-67127380D01*
X64333428Y-67127380D01*
X64190571Y-67079761D01*
X64095333Y-66984523D01*
X64047714Y-66889285D01*
X64000095Y-66698809D01*
X64000095Y-66555952D01*
X64047714Y-66365476D01*
X64095333Y-66270238D01*
X64190571Y-66175000D01*
X64333428Y-66127380D01*
X64428666Y-66127380D01*
X64571523Y-66175000D01*
X64619142Y-66222619D01*
X65571523Y-67127380D02*
X65000095Y-67127380D01*
X65285809Y-67127380D02*
X65285809Y-66127380D01*
X65190571Y-66270238D01*
X65095333Y-66365476D01*
X65000095Y-66413095D01*
X65952476Y-66222619D02*
X66000095Y-66175000D01*
X66095333Y-66127380D01*
X66333428Y-66127380D01*
X66428666Y-66175000D01*
X66476285Y-66222619D01*
X66523904Y-66317857D01*
X66523904Y-66413095D01*
X66476285Y-66555952D01*
X65904857Y-67127380D01*
X66523904Y-67127380D01*
X67428666Y-66127380D02*
X66952476Y-66127380D01*
X66904857Y-66603571D01*
X66952476Y-66555952D01*
X67047714Y-66508333D01*
X67285809Y-66508333D01*
X67381047Y-66555952D01*
X67428666Y-66603571D01*
X67476285Y-66698809D01*
X67476285Y-66936904D01*
X67428666Y-67032142D01*
X67381047Y-67079761D01*
X67285809Y-67127380D01*
X67047714Y-67127380D01*
X66952476Y-67079761D01*
X66904857Y-67032142D01*
X103894285Y-51014380D02*
X104560952Y-51014380D01*
X104132380Y-52014380D01*
X105370476Y-51347714D02*
X105370476Y-52014380D01*
X105132380Y-50966761D02*
X104894285Y-51681047D01*
X105513333Y-51681047D01*
X105894285Y-52014380D02*
X105894285Y-51014380D01*
X105894285Y-51490571D02*
X106465714Y-51490571D01*
X106465714Y-52014380D02*
X106465714Y-51014380D01*
X107513333Y-51919142D02*
X107465714Y-51966761D01*
X107322857Y-52014380D01*
X107227619Y-52014380D01*
X107084761Y-51966761D01*
X106989523Y-51871523D01*
X106941904Y-51776285D01*
X106894285Y-51585809D01*
X106894285Y-51442952D01*
X106941904Y-51252476D01*
X106989523Y-51157238D01*
X107084761Y-51062000D01*
X107227619Y-51014380D01*
X107322857Y-51014380D01*
X107465714Y-51062000D01*
X107513333Y-51109619D01*
X107846666Y-51014380D02*
X108513333Y-51014380D01*
X108084761Y-52014380D01*
X109322857Y-51347714D02*
X109322857Y-52014380D01*
X109084761Y-50966761D02*
X108846666Y-51681047D01*
X109465714Y-51681047D01*
X115864095Y-50887380D02*
X116530761Y-50887380D01*
X116102190Y-51887380D01*
X117340285Y-51220714D02*
X117340285Y-51887380D01*
X117102190Y-50839761D02*
X116864095Y-51554047D01*
X117483142Y-51554047D01*
X117864095Y-51887380D02*
X117864095Y-50887380D01*
X117864095Y-51363571D02*
X118435523Y-51363571D01*
X118435523Y-51887380D02*
X118435523Y-50887380D01*
X119483142Y-51792142D02*
X119435523Y-51839761D01*
X119292666Y-51887380D01*
X119197428Y-51887380D01*
X119054571Y-51839761D01*
X118959333Y-51744523D01*
X118911714Y-51649285D01*
X118864095Y-51458809D01*
X118864095Y-51315952D01*
X118911714Y-51125476D01*
X118959333Y-51030238D01*
X119054571Y-50935000D01*
X119197428Y-50887380D01*
X119292666Y-50887380D01*
X119435523Y-50935000D01*
X119483142Y-50982619D01*
X120435523Y-51887380D02*
X119864095Y-51887380D01*
X120149809Y-51887380D02*
X120149809Y-50887380D01*
X120054571Y-51030238D01*
X119959333Y-51125476D01*
X119864095Y-51173095D01*
X120768857Y-50887380D02*
X121387904Y-50887380D01*
X121054571Y-51268333D01*
X121197428Y-51268333D01*
X121292666Y-51315952D01*
X121340285Y-51363571D01*
X121387904Y-51458809D01*
X121387904Y-51696904D01*
X121340285Y-51792142D01*
X121292666Y-51839761D01*
X121197428Y-51887380D01*
X120911714Y-51887380D01*
X120816476Y-51839761D01*
X120768857Y-51792142D01*
X121864095Y-51887380D02*
X122054571Y-51887380D01*
X122149809Y-51839761D01*
X122197428Y-51792142D01*
X122292666Y-51649285D01*
X122340285Y-51458809D01*
X122340285Y-51077857D01*
X122292666Y-50982619D01*
X122245047Y-50935000D01*
X122149809Y-50887380D01*
X121959333Y-50887380D01*
X121864095Y-50935000D01*
X121816476Y-50982619D01*
X121768857Y-51077857D01*
X121768857Y-51315952D01*
X121816476Y-51411190D01*
X121864095Y-51458809D01*
X121959333Y-51506428D01*
X122149809Y-51506428D01*
X122245047Y-51458809D01*
X122292666Y-51411190D01*
X122340285Y-51315952D01*
X124182333Y-45759714D02*
X123420428Y-46045428D01*
X124182333Y-46331142D01*
X124610904Y-45521619D02*
X124658523Y-45474000D01*
X124753761Y-45426380D01*
X124991857Y-45426380D01*
X125087095Y-45474000D01*
X125134714Y-45521619D01*
X125182333Y-45616857D01*
X125182333Y-45712095D01*
X125134714Y-45854952D01*
X124563285Y-46426380D01*
X125182333Y-46426380D01*
X125610904Y-46426380D02*
X125610904Y-45426380D01*
X125944238Y-46140666D01*
X126277571Y-45426380D01*
X126277571Y-46426380D01*
X127087095Y-45902571D02*
X127229952Y-45950190D01*
X127277571Y-45997809D01*
X127325190Y-46093047D01*
X127325190Y-46235904D01*
X127277571Y-46331142D01*
X127229952Y-46378761D01*
X127134714Y-46426380D01*
X126753761Y-46426380D01*
X126753761Y-45426380D01*
X127087095Y-45426380D01*
X127182333Y-45474000D01*
X127229952Y-45521619D01*
X127277571Y-45616857D01*
X127277571Y-45712095D01*
X127229952Y-45807333D01*
X127182333Y-45854952D01*
X127087095Y-45902571D01*
X126753761Y-45902571D01*
X114784428Y-45886714D02*
X115546333Y-46172428D01*
X114784428Y-46458142D01*
X115974904Y-45648619D02*
X116022523Y-45601000D01*
X116117761Y-45553380D01*
X116355857Y-45553380D01*
X116451095Y-45601000D01*
X116498714Y-45648619D01*
X116546333Y-45743857D01*
X116546333Y-45839095D01*
X116498714Y-45981952D01*
X115927285Y-46553380D01*
X116546333Y-46553380D01*
X116974904Y-46553380D02*
X116974904Y-45553380D01*
X117308238Y-46267666D01*
X117641571Y-45553380D01*
X117641571Y-46553380D01*
X118451095Y-46029571D02*
X118593952Y-46077190D01*
X118641571Y-46124809D01*
X118689190Y-46220047D01*
X118689190Y-46362904D01*
X118641571Y-46458142D01*
X118593952Y-46505761D01*
X118498714Y-46553380D01*
X118117761Y-46553380D01*
X118117761Y-45553380D01*
X118451095Y-45553380D01*
X118546333Y-45601000D01*
X118593952Y-45648619D01*
X118641571Y-45743857D01*
X118641571Y-45839095D01*
X118593952Y-45934333D01*
X118546333Y-45981952D01*
X118451095Y-46029571D01*
X118117761Y-46029571D01*
D11*
G36*
X126912961Y-51848182D02*
G01*
X127008646Y-51876746D01*
X127063252Y-51940090D01*
X127092135Y-52050309D01*
X127099825Y-52109333D01*
X127097603Y-52284803D01*
X127051077Y-52417889D01*
X126966110Y-52501087D01*
X126848565Y-52526891D01*
X126781703Y-52516534D01*
X126739934Y-52512750D01*
X126718398Y-52540202D01*
X126710560Y-52614678D01*
X126709714Y-52690485D01*
X126712380Y-52801640D01*
X126724735Y-52856081D01*
X126753312Y-52869597D01*
X126781703Y-52864437D01*
X126909566Y-52861124D01*
X127015686Y-52913627D01*
X127066351Y-52981609D01*
X127088960Y-53067345D01*
X127104377Y-53194894D01*
X127108857Y-53309050D01*
X127107189Y-53435301D01*
X127098014Y-53505432D01*
X127075082Y-53535884D01*
X127032137Y-53543098D01*
X127019801Y-53543200D01*
X126972373Y-53538556D01*
X126944613Y-53513923D01*
X126929981Y-53453249D01*
X126921938Y-53340485D01*
X126920015Y-53298271D01*
X126912691Y-53168438D01*
X126900603Y-53095086D01*
X126877095Y-53062152D01*
X126835516Y-53053570D01*
X126818571Y-53053343D01*
X126770291Y-53057761D01*
X126742074Y-53081724D01*
X126727267Y-53141298D01*
X126719215Y-53252548D01*
X126717128Y-53298271D01*
X126709750Y-53428150D01*
X126697579Y-53501530D01*
X126674075Y-53534461D01*
X126632700Y-53542996D01*
X126617342Y-53543200D01*
X126528286Y-53543200D01*
X126528286Y-52179435D01*
X126710754Y-52179435D01*
X126714142Y-52272887D01*
X126735435Y-52323111D01*
X126788715Y-52339681D01*
X126835221Y-52338230D01*
X126889581Y-52310726D01*
X126915745Y-52236581D01*
X126920192Y-52197523D01*
X126911911Y-52085946D01*
X126872665Y-52014453D01*
X126812946Y-51995032D01*
X126764143Y-52019200D01*
X126728529Y-52083143D01*
X126710754Y-52179435D01*
X126528286Y-52179435D01*
X126528286Y-51844082D01*
X126760837Y-51842297D01*
X126912961Y-51848182D01*
X126912961Y-51848182D01*
G37*
X126912961Y-51848182D02*
X127008646Y-51876746D01*
X127063252Y-51940090D01*
X127092135Y-52050309D01*
X127099825Y-52109333D01*
X127097603Y-52284803D01*
X127051077Y-52417889D01*
X126966110Y-52501087D01*
X126848565Y-52526891D01*
X126781703Y-52516534D01*
X126739934Y-52512750D01*
X126718398Y-52540202D01*
X126710560Y-52614678D01*
X126709714Y-52690485D01*
X126712380Y-52801640D01*
X126724735Y-52856081D01*
X126753312Y-52869597D01*
X126781703Y-52864437D01*
X126909566Y-52861124D01*
X127015686Y-52913627D01*
X127066351Y-52981609D01*
X127088960Y-53067345D01*
X127104377Y-53194894D01*
X127108857Y-53309050D01*
X127107189Y-53435301D01*
X127098014Y-53505432D01*
X127075082Y-53535884D01*
X127032137Y-53543098D01*
X127019801Y-53543200D01*
X126972373Y-53538556D01*
X126944613Y-53513923D01*
X126929981Y-53453249D01*
X126921938Y-53340485D01*
X126920015Y-53298271D01*
X126912691Y-53168438D01*
X126900603Y-53095086D01*
X126877095Y-53062152D01*
X126835516Y-53053570D01*
X126818571Y-53053343D01*
X126770291Y-53057761D01*
X126742074Y-53081724D01*
X126727267Y-53141298D01*
X126719215Y-53252548D01*
X126717128Y-53298271D01*
X126709750Y-53428150D01*
X126697579Y-53501530D01*
X126674075Y-53534461D01*
X126632700Y-53542996D01*
X126617342Y-53543200D01*
X126528286Y-53543200D01*
X126528286Y-52179435D01*
X126710754Y-52179435D01*
X126714142Y-52272887D01*
X126735435Y-52323111D01*
X126788715Y-52339681D01*
X126835221Y-52338230D01*
X126889581Y-52310726D01*
X126915745Y-52236581D01*
X126920192Y-52197523D01*
X126911911Y-52085946D01*
X126872665Y-52014453D01*
X126812946Y-51995032D01*
X126764143Y-52019200D01*
X126728529Y-52083143D01*
X126710754Y-52179435D01*
X126528286Y-52179435D01*
X126528286Y-51844082D01*
X126760837Y-51842297D01*
X126912961Y-51848182D01*
G36*
X127589019Y-52879963D02*
G01*
X127636720Y-52904971D01*
X127673798Y-52945492D01*
X127697669Y-53012280D01*
X127712344Y-53121921D01*
X127720069Y-53249685D01*
X127733398Y-53543200D01*
X127499323Y-53543200D01*
X127356009Y-53537689D01*
X127265525Y-53518284D01*
X127208768Y-53480675D01*
X127205195Y-53476843D01*
X127147498Y-53373136D01*
X127149887Y-53337654D01*
X127327471Y-53337654D01*
X127352292Y-53375397D01*
X127412044Y-53393576D01*
X127486728Y-53377710D01*
X127534444Y-53337145D01*
X127535396Y-53334557D01*
X127516495Y-53300025D01*
X127438452Y-53289200D01*
X127350512Y-53301849D01*
X127327471Y-53337654D01*
X127149887Y-53337654D01*
X127154087Y-53275291D01*
X127217066Y-53196678D01*
X127328540Y-53150664D01*
X127401735Y-53144057D01*
X127505054Y-53133288D01*
X127543749Y-53099836D01*
X127544286Y-53093511D01*
X127514753Y-53037487D01*
X127444707Y-53015136D01*
X127365241Y-53033924D01*
X127285706Y-53045021D01*
X127231798Y-53015651D01*
X127184726Y-52972839D01*
X127195032Y-52940040D01*
X127233721Y-52908200D01*
X127335972Y-52865863D01*
X127466577Y-52856353D01*
X127589019Y-52879963D01*
X127589019Y-52879963D01*
G37*
X127589019Y-52879963D02*
X127636720Y-52904971D01*
X127673798Y-52945492D01*
X127697669Y-53012280D01*
X127712344Y-53121921D01*
X127720069Y-53249685D01*
X127733398Y-53543200D01*
X127499323Y-53543200D01*
X127356009Y-53537689D01*
X127265525Y-53518284D01*
X127208768Y-53480675D01*
X127205195Y-53476843D01*
X127147498Y-53373136D01*
X127149887Y-53337654D01*
X127327471Y-53337654D01*
X127352292Y-53375397D01*
X127412044Y-53393576D01*
X127486728Y-53377710D01*
X127534444Y-53337145D01*
X127535396Y-53334557D01*
X127516495Y-53300025D01*
X127438452Y-53289200D01*
X127350512Y-53301849D01*
X127327471Y-53337654D01*
X127149887Y-53337654D01*
X127154087Y-53275291D01*
X127217066Y-53196678D01*
X127328540Y-53150664D01*
X127401735Y-53144057D01*
X127505054Y-53133288D01*
X127543749Y-53099836D01*
X127544286Y-53093511D01*
X127514753Y-53037487D01*
X127444707Y-53015136D01*
X127365241Y-53033924D01*
X127285706Y-53045021D01*
X127231798Y-53015651D01*
X127184726Y-52972839D01*
X127195032Y-52940040D01*
X127233721Y-52908200D01*
X127335972Y-52865863D01*
X127466577Y-52856353D01*
X127589019Y-52879963D01*
G36*
X128814286Y-53543200D02*
G01*
X128602195Y-53543200D01*
X128444041Y-53531800D01*
X128344054Y-53489657D01*
X128290315Y-53404853D01*
X128270909Y-53265469D01*
X128270380Y-53233713D01*
X128430545Y-53233713D01*
X128451791Y-53324733D01*
X128489415Y-53386085D01*
X128516205Y-53397501D01*
X128566853Y-53379719D01*
X128590011Y-53366594D01*
X128622190Y-53306480D01*
X128626297Y-53194792D01*
X128609744Y-53097828D01*
X128573387Y-53052791D01*
X128536413Y-53042185D01*
X128475751Y-53050524D01*
X128441850Y-53109486D01*
X128434211Y-53139843D01*
X128430545Y-53233713D01*
X128270380Y-53233713D01*
X128270000Y-53210984D01*
X128270000Y-53011483D01*
X128152071Y-53028354D01*
X128065184Y-53048325D01*
X128013673Y-53088200D01*
X127988494Y-53164099D01*
X127980602Y-53292140D01*
X127980270Y-53334557D01*
X127977054Y-53453077D01*
X127964269Y-53516003D01*
X127935998Y-53540219D01*
X127907143Y-53543200D01*
X127873339Y-53537970D01*
X127852037Y-53513284D01*
X127840380Y-53455645D01*
X127835511Y-53351556D01*
X127834571Y-53200330D01*
X127834571Y-52857459D01*
X128061357Y-52872501D01*
X128195235Y-52881055D01*
X128286131Y-52885073D01*
X128363469Y-52884956D01*
X128456670Y-52881107D01*
X128505857Y-52878566D01*
X128589096Y-52868842D01*
X128624677Y-52836482D01*
X128632764Y-52758823D01*
X128632857Y-52735843D01*
X128638618Y-52646092D01*
X128665184Y-52607699D01*
X128723571Y-52599771D01*
X128814286Y-52599771D01*
X128814286Y-53543200D01*
X128814286Y-53543200D01*
G37*
X128814286Y-53543200D02*
X128602195Y-53543200D01*
X128444041Y-53531800D01*
X128344054Y-53489657D01*
X128290315Y-53404853D01*
X128270909Y-53265469D01*
X128270380Y-53233713D01*
X128430545Y-53233713D01*
X128451791Y-53324733D01*
X128489415Y-53386085D01*
X128516205Y-53397501D01*
X128566853Y-53379719D01*
X128590011Y-53366594D01*
X128622190Y-53306480D01*
X128626297Y-53194792D01*
X128609744Y-53097828D01*
X128573387Y-53052791D01*
X128536413Y-53042185D01*
X128475751Y-53050524D01*
X128441850Y-53109486D01*
X128434211Y-53139843D01*
X128430545Y-53233713D01*
X128270380Y-53233713D01*
X128270000Y-53210984D01*
X128270000Y-53011483D01*
X128152071Y-53028354D01*
X128065184Y-53048325D01*
X128013673Y-53088200D01*
X127988494Y-53164099D01*
X127980602Y-53292140D01*
X127980270Y-53334557D01*
X127977054Y-53453077D01*
X127964269Y-53516003D01*
X127935998Y-53540219D01*
X127907143Y-53543200D01*
X127873339Y-53537970D01*
X127852037Y-53513284D01*
X127840380Y-53455645D01*
X127835511Y-53351556D01*
X127834571Y-53200330D01*
X127834571Y-52857459D01*
X128061357Y-52872501D01*
X128195235Y-52881055D01*
X128286131Y-52885073D01*
X128363469Y-52884956D01*
X128456670Y-52881107D01*
X128505857Y-52878566D01*
X128589096Y-52868842D01*
X128624677Y-52836482D01*
X128632764Y-52758823D01*
X128632857Y-52735843D01*
X128638618Y-52646092D01*
X128665184Y-52607699D01*
X128723571Y-52599771D01*
X128814286Y-52599771D01*
X128814286Y-53543200D01*
G36*
X129366681Y-52872597D02*
G01*
X129422397Y-52967035D01*
X129455836Y-53058985D01*
X129520524Y-53264198D01*
X129577125Y-53068056D01*
X129618421Y-52947952D01*
X129660703Y-52883961D01*
X129713863Y-52860319D01*
X129758974Y-52857905D01*
X129783332Y-52874132D01*
X129786498Y-52920180D01*
X129768033Y-53007230D01*
X129727499Y-53146464D01*
X129699009Y-53238531D01*
X129650549Y-53386715D01*
X129612948Y-53477919D01*
X129578514Y-53525323D01*
X129539555Y-53542107D01*
X129521200Y-53543200D01*
X129468833Y-53531900D01*
X129432996Y-53486663D01*
X129401968Y-53390480D01*
X129394153Y-53358837D01*
X129363155Y-53251132D01*
X129334951Y-53211591D01*
X129304927Y-53241210D01*
X129268467Y-53340983D01*
X129254375Y-53388985D01*
X129215026Y-53492765D01*
X129168255Y-53538079D01*
X129138262Y-53543200D01*
X129071173Y-53523278D01*
X129049275Y-53497843D01*
X129011039Y-53390107D01*
X128966687Y-53259152D01*
X128922356Y-53123949D01*
X128884184Y-53003471D01*
X128858311Y-52916691D01*
X128850571Y-52883701D01*
X128881557Y-52860883D01*
X128937932Y-52853771D01*
X128993278Y-52864300D01*
X129030564Y-52907484D01*
X129062709Y-53000720D01*
X129071328Y-53033389D01*
X129101583Y-53131783D01*
X129129434Y-53190042D01*
X129142275Y-53197609D01*
X129166057Y-53156294D01*
X129197823Y-53069218D01*
X129213167Y-53017992D01*
X129260068Y-52897738D01*
X129311905Y-52849385D01*
X129366681Y-52872597D01*
X129366681Y-52872597D01*
G37*
X129366681Y-52872597D02*
X129422397Y-52967035D01*
X129455836Y-53058985D01*
X129520524Y-53264198D01*
X129577125Y-53068056D01*
X129618421Y-52947952D01*
X129660703Y-52883961D01*
X129713863Y-52860319D01*
X129758974Y-52857905D01*
X129783332Y-52874132D01*
X129786498Y-52920180D01*
X129768033Y-53007230D01*
X129727499Y-53146464D01*
X129699009Y-53238531D01*
X129650549Y-53386715D01*
X129612948Y-53477919D01*
X129578514Y-53525323D01*
X129539555Y-53542107D01*
X129521200Y-53543200D01*
X129468833Y-53531900D01*
X129432996Y-53486663D01*
X129401968Y-53390480D01*
X129394153Y-53358837D01*
X129363155Y-53251132D01*
X129334951Y-53211591D01*
X129304927Y-53241210D01*
X129268467Y-53340983D01*
X129254375Y-53388985D01*
X129215026Y-53492765D01*
X129168255Y-53538079D01*
X129138262Y-53543200D01*
X129071173Y-53523278D01*
X129049275Y-53497843D01*
X129011039Y-53390107D01*
X128966687Y-53259152D01*
X128922356Y-53123949D01*
X128884184Y-53003471D01*
X128858311Y-52916691D01*
X128850571Y-52883701D01*
X128881557Y-52860883D01*
X128937932Y-52853771D01*
X128993278Y-52864300D01*
X129030564Y-52907484D01*
X129062709Y-53000720D01*
X129071328Y-53033389D01*
X129101583Y-53131783D01*
X129129434Y-53190042D01*
X129142275Y-53197609D01*
X129166057Y-53156294D01*
X129197823Y-53069218D01*
X129213167Y-53017992D01*
X129260068Y-52897738D01*
X129311905Y-52849385D01*
X129366681Y-52872597D01*
G36*
X130130253Y-52861446D02*
G01*
X130251081Y-52905832D01*
X130257640Y-52910257D01*
X130298782Y-52946947D01*
X130323055Y-52997682D01*
X130334762Y-53080648D01*
X130338209Y-53214030D01*
X130338286Y-53251003D01*
X130338286Y-53535262D01*
X130109154Y-53538699D01*
X129973951Y-53533881D01*
X129874636Y-53517084D01*
X129837011Y-53499125D01*
X129803339Y-53424772D01*
X129797228Y-53338238D01*
X129939875Y-53338238D01*
X129963333Y-53373866D01*
X130022148Y-53398210D01*
X130095023Y-53393699D01*
X130148199Y-53365609D01*
X130156857Y-53343628D01*
X130124402Y-53300417D01*
X130048000Y-53289200D01*
X129962043Y-53302150D01*
X129939875Y-53338238D01*
X129797228Y-53338238D01*
X129795983Y-53320623D01*
X129814878Y-53224489D01*
X129837543Y-53187600D01*
X129899026Y-53160433D01*
X130000044Y-53145228D01*
X130037114Y-53144057D01*
X130147493Y-53135229D01*
X130189138Y-53107372D01*
X130163872Y-53058427D01*
X130135768Y-53032754D01*
X130077370Y-53003488D01*
X130011026Y-53027280D01*
X130004171Y-53031490D01*
X129937797Y-53058409D01*
X129883173Y-53029863D01*
X129871046Y-53018018D01*
X129832869Y-52968550D01*
X129851319Y-52930722D01*
X129882578Y-52905982D01*
X129995647Y-52861362D01*
X130130253Y-52861446D01*
X130130253Y-52861446D01*
G37*
X130130253Y-52861446D02*
X130251081Y-52905832D01*
X130257640Y-52910257D01*
X130298782Y-52946947D01*
X130323055Y-52997682D01*
X130334762Y-53080648D01*
X130338209Y-53214030D01*
X130338286Y-53251003D01*
X130338286Y-53535262D01*
X130109154Y-53538699D01*
X129973951Y-53533881D01*
X129874636Y-53517084D01*
X129837011Y-53499125D01*
X129803339Y-53424772D01*
X129797228Y-53338238D01*
X129939875Y-53338238D01*
X129963333Y-53373866D01*
X130022148Y-53398210D01*
X130095023Y-53393699D01*
X130148199Y-53365609D01*
X130156857Y-53343628D01*
X130124402Y-53300417D01*
X130048000Y-53289200D01*
X129962043Y-53302150D01*
X129939875Y-53338238D01*
X129797228Y-53338238D01*
X129795983Y-53320623D01*
X129814878Y-53224489D01*
X129837543Y-53187600D01*
X129899026Y-53160433D01*
X130000044Y-53145228D01*
X130037114Y-53144057D01*
X130147493Y-53135229D01*
X130189138Y-53107372D01*
X130163872Y-53058427D01*
X130135768Y-53032754D01*
X130077370Y-53003488D01*
X130011026Y-53027280D01*
X130004171Y-53031490D01*
X129937797Y-53058409D01*
X129883173Y-53029863D01*
X129871046Y-53018018D01*
X129832869Y-52968550D01*
X129851319Y-52930722D01*
X129882578Y-52905982D01*
X129995647Y-52861362D01*
X130130253Y-52861446D01*
G36*
X130783015Y-52863639D02*
G01*
X130870610Y-52877757D01*
X130902869Y-52893544D01*
X130902824Y-52950448D01*
X130849978Y-53004711D01*
X130762645Y-53039225D01*
X130743845Y-53042117D01*
X130692150Y-53052282D01*
X130662046Y-53079025D01*
X130646432Y-53139209D01*
X130638208Y-53249696D01*
X130635985Y-53298271D01*
X130628607Y-53428150D01*
X130616436Y-53501530D01*
X130592932Y-53534461D01*
X130551557Y-53542996D01*
X130536199Y-53543200D01*
X130494799Y-53540589D01*
X130468752Y-53523658D01*
X130454502Y-53478755D01*
X130448490Y-53392230D01*
X130447160Y-53250434D01*
X130447143Y-53201419D01*
X130447143Y-52859639D01*
X130663888Y-52858602D01*
X130783015Y-52863639D01*
X130783015Y-52863639D01*
G37*
X130783015Y-52863639D02*
X130870610Y-52877757D01*
X130902869Y-52893544D01*
X130902824Y-52950448D01*
X130849978Y-53004711D01*
X130762645Y-53039225D01*
X130743845Y-53042117D01*
X130692150Y-53052282D01*
X130662046Y-53079025D01*
X130646432Y-53139209D01*
X130638208Y-53249696D01*
X130635985Y-53298271D01*
X130628607Y-53428150D01*
X130616436Y-53501530D01*
X130592932Y-53534461D01*
X130551557Y-53542996D01*
X130536199Y-53543200D01*
X130494799Y-53540589D01*
X130468752Y-53523658D01*
X130454502Y-53478755D01*
X130448490Y-53392230D01*
X130447160Y-53250434D01*
X130447143Y-53201419D01*
X130447143Y-52859639D01*
X130663888Y-52858602D01*
X130783015Y-52863639D01*
G36*
X131285872Y-52880906D02*
G01*
X131388665Y-52957803D01*
X131451573Y-53074894D01*
X131463143Y-53160550D01*
X131463143Y-53289200D01*
X131255796Y-53289200D01*
X131141116Y-53290790D01*
X131087097Y-53298857D01*
X131081842Y-53318341D01*
X131109313Y-53350063D01*
X131173349Y-53390472D01*
X131249832Y-53374598D01*
X131254833Y-53372355D01*
X131341106Y-53353804D01*
X131410388Y-53386306D01*
X131459666Y-53428543D01*
X131450336Y-53459905D01*
X131410850Y-53491015D01*
X131311867Y-53531844D01*
X131186756Y-53542885D01*
X131066328Y-53525116D01*
X130981390Y-53479516D01*
X130979340Y-53477319D01*
X130919459Y-53368552D01*
X130896151Y-53232074D01*
X130906874Y-53098700D01*
X131073071Y-53098700D01*
X131091953Y-53133109D01*
X131172857Y-53144057D01*
X131256034Y-53132076D01*
X131272643Y-53098700D01*
X131228907Y-53063281D01*
X131172857Y-53053343D01*
X131101040Y-53070448D01*
X131073071Y-53098700D01*
X130906874Y-53098700D01*
X130907466Y-53091340D01*
X130951451Y-52969802D01*
X131026156Y-52890913D01*
X131028235Y-52889778D01*
X131160095Y-52854723D01*
X131285872Y-52880906D01*
X131285872Y-52880906D01*
G37*
X131285872Y-52880906D02*
X131388665Y-52957803D01*
X131451573Y-53074894D01*
X131463143Y-53160550D01*
X131463143Y-53289200D01*
X131255796Y-53289200D01*
X131141116Y-53290790D01*
X131087097Y-53298857D01*
X131081842Y-53318341D01*
X131109313Y-53350063D01*
X131173349Y-53390472D01*
X131249832Y-53374598D01*
X131254833Y-53372355D01*
X131341106Y-53353804D01*
X131410388Y-53386306D01*
X131459666Y-53428543D01*
X131450336Y-53459905D01*
X131410850Y-53491015D01*
X131311867Y-53531844D01*
X131186756Y-53542885D01*
X131066328Y-53525116D01*
X130981390Y-53479516D01*
X130979340Y-53477319D01*
X130919459Y-53368552D01*
X130896151Y-53232074D01*
X130906874Y-53098700D01*
X131073071Y-53098700D01*
X131091953Y-53133109D01*
X131172857Y-53144057D01*
X131256034Y-53132076D01*
X131272643Y-53098700D01*
X131228907Y-53063281D01*
X131172857Y-53053343D01*
X131101040Y-53070448D01*
X131073071Y-53098700D01*
X130906874Y-53098700D01*
X130907466Y-53091340D01*
X130951451Y-52969802D01*
X131026156Y-52890913D01*
X131028235Y-52889778D01*
X131160095Y-52854723D01*
X131285872Y-52880906D01*
G36*
X126327004Y-51871681D02*
G01*
X126383143Y-51910343D01*
X126439142Y-52010718D01*
X126460926Y-52146141D01*
X126449101Y-52287990D01*
X126404274Y-52407644D01*
X126371733Y-52448303D01*
X126258262Y-52512580D01*
X126129749Y-52523020D01*
X126013290Y-52479181D01*
X125984000Y-52454628D01*
X125935292Y-52365975D01*
X125910246Y-52238841D01*
X125909787Y-52180070D01*
X126057567Y-52180070D01*
X126078596Y-52288375D01*
X126129441Y-52337417D01*
X126206175Y-52338596D01*
X126267029Y-52302228D01*
X126306433Y-52217722D01*
X126298064Y-52115528D01*
X126253623Y-52040006D01*
X126182171Y-52001650D01*
X126119015Y-52021664D01*
X126074149Y-52085864D01*
X126057567Y-52180070D01*
X125909787Y-52180070D01*
X125909162Y-52100153D01*
X125932340Y-51976835D01*
X125977786Y-51897824D01*
X126079172Y-51848641D01*
X126206647Y-51840269D01*
X126327004Y-51871681D01*
X126327004Y-51871681D01*
G37*
X126327004Y-51871681D02*
X126383143Y-51910343D01*
X126439142Y-52010718D01*
X126460926Y-52146141D01*
X126449101Y-52287990D01*
X126404274Y-52407644D01*
X126371733Y-52448303D01*
X126258262Y-52512580D01*
X126129749Y-52523020D01*
X126013290Y-52479181D01*
X125984000Y-52454628D01*
X125935292Y-52365975D01*
X125910246Y-52238841D01*
X125909787Y-52180070D01*
X126057567Y-52180070D01*
X126078596Y-52288375D01*
X126129441Y-52337417D01*
X126206175Y-52338596D01*
X126267029Y-52302228D01*
X126306433Y-52217722D01*
X126298064Y-52115528D01*
X126253623Y-52040006D01*
X126182171Y-52001650D01*
X126119015Y-52021664D01*
X126074149Y-52085864D01*
X126057567Y-52180070D01*
X125909787Y-52180070D01*
X125909162Y-52100153D01*
X125932340Y-51976835D01*
X125977786Y-51897824D01*
X126079172Y-51848641D01*
X126206647Y-51840269D01*
X126327004Y-51871681D01*
G36*
X127572167Y-51870192D02*
G01*
X127671561Y-51957572D01*
X127722175Y-52085091D01*
X127725714Y-52132950D01*
X127721961Y-52192396D01*
X127698799Y-52223338D01*
X127638378Y-52235078D01*
X127526143Y-52236914D01*
X127397337Y-52245062D01*
X127334579Y-52268456D01*
X127339949Y-52305519D01*
X127389134Y-52340891D01*
X127481453Y-52354197D01*
X127518970Y-52339900D01*
X127604388Y-52319157D01*
X127668943Y-52345474D01*
X127689428Y-52397784D01*
X127658203Y-52464766D01*
X127578454Y-52507732D01*
X127471073Y-52523832D01*
X127356953Y-52510219D01*
X127256985Y-52464046D01*
X127248948Y-52457834D01*
X127197076Y-52402622D01*
X127171235Y-52329650D01*
X127163403Y-52213791D01*
X127163286Y-52189501D01*
X127175320Y-52071156D01*
X127337412Y-52071156D01*
X127351902Y-52088310D01*
X127427429Y-52091765D01*
X127435428Y-52091771D01*
X127515718Y-52088883D01*
X127534204Y-52073061D01*
X127501623Y-52033570D01*
X127497633Y-52029567D01*
X127446103Y-51987527D01*
X127404857Y-51999904D01*
X127373224Y-52029567D01*
X127337412Y-52071156D01*
X127175320Y-52071156D01*
X127180539Y-52019834D01*
X127235423Y-51908841D01*
X127332621Y-51850534D01*
X127438419Y-51837771D01*
X127572167Y-51870192D01*
X127572167Y-51870192D01*
G37*
X127572167Y-51870192D02*
X127671561Y-51957572D01*
X127722175Y-52085091D01*
X127725714Y-52132950D01*
X127721961Y-52192396D01*
X127698799Y-52223338D01*
X127638378Y-52235078D01*
X127526143Y-52236914D01*
X127397337Y-52245062D01*
X127334579Y-52268456D01*
X127339949Y-52305519D01*
X127389134Y-52340891D01*
X127481453Y-52354197D01*
X127518970Y-52339900D01*
X127604388Y-52319157D01*
X127668943Y-52345474D01*
X127689428Y-52397784D01*
X127658203Y-52464766D01*
X127578454Y-52507732D01*
X127471073Y-52523832D01*
X127356953Y-52510219D01*
X127256985Y-52464046D01*
X127248948Y-52457834D01*
X127197076Y-52402622D01*
X127171235Y-52329650D01*
X127163403Y-52213791D01*
X127163286Y-52189501D01*
X127175320Y-52071156D01*
X127337412Y-52071156D01*
X127351902Y-52088310D01*
X127427429Y-52091765D01*
X127435428Y-52091771D01*
X127515718Y-52088883D01*
X127534204Y-52073061D01*
X127501623Y-52033570D01*
X127497633Y-52029567D01*
X127446103Y-51987527D01*
X127404857Y-51999904D01*
X127373224Y-52029567D01*
X127337412Y-52071156D01*
X127175320Y-52071156D01*
X127180539Y-52019834D01*
X127235423Y-51908841D01*
X127332621Y-51850534D01*
X127438419Y-51837771D01*
X127572167Y-51870192D01*
G36*
X128154785Y-51845533D02*
G01*
X128250621Y-51876723D01*
X128307467Y-51943204D01*
X128334909Y-52056833D01*
X128342530Y-52229472D01*
X128342571Y-52248843D01*
X128340930Y-52389884D01*
X128333419Y-52473266D01*
X128316157Y-52513872D01*
X128285264Y-52526585D01*
X128270000Y-52527200D01*
X128229276Y-52519162D01*
X128207378Y-52483928D01*
X128198679Y-52404818D01*
X128197429Y-52312077D01*
X128183695Y-52151074D01*
X128144575Y-52045219D01*
X128083194Y-52000322D01*
X128033093Y-52006481D01*
X128002576Y-52039514D01*
X127985637Y-52117749D01*
X127979789Y-52253791D01*
X127979714Y-52277082D01*
X127978330Y-52408534D01*
X127970326Y-52483353D01*
X127949923Y-52517472D01*
X127911342Y-52526824D01*
X127889000Y-52527200D01*
X127846975Y-52524806D01*
X127820471Y-52508562D01*
X127805910Y-52464875D01*
X127799715Y-52380150D01*
X127798309Y-52240794D01*
X127798286Y-52182486D01*
X127798286Y-51837771D01*
X128010376Y-51837771D01*
X128154785Y-51845533D01*
X128154785Y-51845533D01*
G37*
X128154785Y-51845533D02*
X128250621Y-51876723D01*
X128307467Y-51943204D01*
X128334909Y-52056833D01*
X128342530Y-52229472D01*
X128342571Y-52248843D01*
X128340930Y-52389884D01*
X128333419Y-52473266D01*
X128316157Y-52513872D01*
X128285264Y-52526585D01*
X128270000Y-52527200D01*
X128229276Y-52519162D01*
X128207378Y-52483928D01*
X128198679Y-52404818D01*
X128197429Y-52312077D01*
X128183695Y-52151074D01*
X128144575Y-52045219D01*
X128083194Y-52000322D01*
X128033093Y-52006481D01*
X128002576Y-52039514D01*
X127985637Y-52117749D01*
X127979789Y-52253791D01*
X127979714Y-52277082D01*
X127978330Y-52408534D01*
X127970326Y-52483353D01*
X127949923Y-52517472D01*
X127911342Y-52526824D01*
X127889000Y-52527200D01*
X127846975Y-52524806D01*
X127820471Y-52508562D01*
X127805910Y-52464875D01*
X127799715Y-52380150D01*
X127798309Y-52240794D01*
X127798286Y-52182486D01*
X127798286Y-51837771D01*
X128010376Y-51837771D01*
X128154785Y-51845533D01*
G36*
X129087342Y-51849837D02*
G01*
X129180771Y-51879826D01*
X129197422Y-51889982D01*
X129245300Y-51934334D01*
X129234853Y-51973815D01*
X129208590Y-52002381D01*
X129149077Y-52042046D01*
X129081045Y-52025834D01*
X129069684Y-52019948D01*
X128993561Y-51996431D01*
X128928649Y-52001703D01*
X128898281Y-52030772D01*
X128904842Y-52055229D01*
X128954855Y-52083238D01*
X129018384Y-52091771D01*
X129150192Y-52113893D01*
X129226443Y-52181701D01*
X129249714Y-52290562D01*
X129219029Y-52407326D01*
X129136096Y-52487781D01*
X129014596Y-52525947D01*
X128868210Y-52515845D01*
X128790784Y-52491157D01*
X128703026Y-52435959D01*
X128683147Y-52371763D01*
X128713265Y-52322383D01*
X128757438Y-52291672D01*
X128810359Y-52299049D01*
X128879600Y-52334885D01*
X128958190Y-52375476D01*
X129005253Y-52377886D01*
X129050637Y-52342661D01*
X129055232Y-52338090D01*
X129088304Y-52298696D01*
X129077145Y-52276027D01*
X129010278Y-52259269D01*
X128963327Y-52251472D01*
X128813411Y-52207608D01*
X128727611Y-52136341D01*
X128708061Y-52041202D01*
X128756898Y-51925722D01*
X128761915Y-51918416D01*
X128822647Y-51862311D01*
X128915637Y-51839703D01*
X128972694Y-51837771D01*
X129087342Y-51849837D01*
X129087342Y-51849837D01*
G37*
X129087342Y-51849837D02*
X129180771Y-51879826D01*
X129197422Y-51889982D01*
X129245300Y-51934334D01*
X129234853Y-51973815D01*
X129208590Y-52002381D01*
X129149077Y-52042046D01*
X129081045Y-52025834D01*
X129069684Y-52019948D01*
X128993561Y-51996431D01*
X128928649Y-52001703D01*
X128898281Y-52030772D01*
X128904842Y-52055229D01*
X128954855Y-52083238D01*
X129018384Y-52091771D01*
X129150192Y-52113893D01*
X129226443Y-52181701D01*
X129249714Y-52290562D01*
X129219029Y-52407326D01*
X129136096Y-52487781D01*
X129014596Y-52525947D01*
X128868210Y-52515845D01*
X128790784Y-52491157D01*
X128703026Y-52435959D01*
X128683147Y-52371763D01*
X128713265Y-52322383D01*
X128757438Y-52291672D01*
X128810359Y-52299049D01*
X128879600Y-52334885D01*
X128958190Y-52375476D01*
X129005253Y-52377886D01*
X129050637Y-52342661D01*
X129055232Y-52338090D01*
X129088304Y-52298696D01*
X129077145Y-52276027D01*
X129010278Y-52259269D01*
X128963327Y-52251472D01*
X128813411Y-52207608D01*
X128727611Y-52136341D01*
X128708061Y-52041202D01*
X128756898Y-51925722D01*
X128761915Y-51918416D01*
X128822647Y-51862311D01*
X128915637Y-51839703D01*
X128972694Y-51837771D01*
X129087342Y-51849837D01*
G36*
X129721233Y-51862832D02*
G01*
X129794000Y-51910343D01*
X129850000Y-52010718D01*
X129871783Y-52146141D01*
X129859958Y-52287990D01*
X129815131Y-52407644D01*
X129782590Y-52448303D01*
X129664824Y-52513486D01*
X129529597Y-52520758D01*
X129404364Y-52469207D01*
X129393953Y-52461193D01*
X129337548Y-52375506D01*
X129308092Y-52249169D01*
X129307316Y-52178860D01*
X129468422Y-52178860D01*
X129471391Y-52271133D01*
X129491619Y-52321581D01*
X129560172Y-52346454D01*
X129638420Y-52322605D01*
X129684744Y-52273944D01*
X129709386Y-52179607D01*
X129693089Y-52090718D01*
X129647235Y-52024329D01*
X129583205Y-51997488D01*
X129517258Y-52023017D01*
X129484727Y-52084333D01*
X129468422Y-52178860D01*
X129307316Y-52178860D01*
X129306548Y-52109289D01*
X129333878Y-51982976D01*
X129374471Y-51912822D01*
X129471824Y-51853421D01*
X129597559Y-51836698D01*
X129721233Y-51862832D01*
X129721233Y-51862832D01*
G37*
X129721233Y-51862832D02*
X129794000Y-51910343D01*
X129850000Y-52010718D01*
X129871783Y-52146141D01*
X129859958Y-52287990D01*
X129815131Y-52407644D01*
X129782590Y-52448303D01*
X129664824Y-52513486D01*
X129529597Y-52520758D01*
X129404364Y-52469207D01*
X129393953Y-52461193D01*
X129337548Y-52375506D01*
X129308092Y-52249169D01*
X129307316Y-52178860D01*
X129468422Y-52178860D01*
X129471391Y-52271133D01*
X129491619Y-52321581D01*
X129560172Y-52346454D01*
X129638420Y-52322605D01*
X129684744Y-52273944D01*
X129709386Y-52179607D01*
X129693089Y-52090718D01*
X129647235Y-52024329D01*
X129583205Y-51997488D01*
X129517258Y-52023017D01*
X129484727Y-52084333D01*
X129468422Y-52178860D01*
X129307316Y-52178860D01*
X129306548Y-52109289D01*
X129333878Y-51982976D01*
X129374471Y-51912822D01*
X129471824Y-51853421D01*
X129597559Y-51836698D01*
X129721233Y-51862832D01*
G36*
X130073764Y-51841910D02*
G01*
X130102587Y-51865047D01*
X130117630Y-51923260D01*
X130125695Y-52032629D01*
X130127985Y-52082700D01*
X130135309Y-52212533D01*
X130147397Y-52285885D01*
X130170905Y-52318819D01*
X130212484Y-52327401D01*
X130229429Y-52327628D01*
X130277709Y-52323210D01*
X130305925Y-52299247D01*
X130320733Y-52239673D01*
X130328785Y-52128423D01*
X130330872Y-52082700D01*
X130338250Y-51952821D01*
X130350421Y-51879441D01*
X130373925Y-51846510D01*
X130415300Y-51837975D01*
X130430658Y-51837771D01*
X130472058Y-51840382D01*
X130498105Y-51857313D01*
X130512355Y-51902216D01*
X130518367Y-51988741D01*
X130519697Y-52130537D01*
X130519714Y-52179552D01*
X130519714Y-52521332D01*
X130306319Y-52522353D01*
X130167829Y-52514217D01*
X130061259Y-52491384D01*
X130025520Y-52474087D01*
X129989440Y-52432852D01*
X129966053Y-52362331D01*
X129951576Y-52246459D01*
X129944788Y-52131286D01*
X129931459Y-51837771D01*
X130024357Y-51837771D01*
X130073764Y-51841910D01*
X130073764Y-51841910D01*
G37*
X130073764Y-51841910D02*
X130102587Y-51865047D01*
X130117630Y-51923260D01*
X130125695Y-52032629D01*
X130127985Y-52082700D01*
X130135309Y-52212533D01*
X130147397Y-52285885D01*
X130170905Y-52318819D01*
X130212484Y-52327401D01*
X130229429Y-52327628D01*
X130277709Y-52323210D01*
X130305925Y-52299247D01*
X130320733Y-52239673D01*
X130328785Y-52128423D01*
X130330872Y-52082700D01*
X130338250Y-51952821D01*
X130350421Y-51879441D01*
X130373925Y-51846510D01*
X130415300Y-51837975D01*
X130430658Y-51837771D01*
X130472058Y-51840382D01*
X130498105Y-51857313D01*
X130512355Y-51902216D01*
X130518367Y-51988741D01*
X130519697Y-52130537D01*
X130519714Y-52179552D01*
X130519714Y-52521332D01*
X130306319Y-52522353D01*
X130167829Y-52514217D01*
X130061259Y-52491384D01*
X130025520Y-52474087D01*
X129989440Y-52432852D01*
X129966053Y-52362331D01*
X129951576Y-52246459D01*
X129944788Y-52131286D01*
X129931459Y-51837771D01*
X130024357Y-51837771D01*
X130073764Y-51841910D01*
G36*
X130962420Y-51845054D02*
G01*
X131047459Y-51854703D01*
X131077314Y-51866244D01*
X131074779Y-51919141D01*
X131030104Y-51974111D01*
X130968651Y-52006578D01*
X130934144Y-52004982D01*
X130856814Y-51999729D01*
X130805581Y-52055742D01*
X130778799Y-52176003D01*
X130773714Y-52295786D01*
X130771366Y-52421967D01*
X130760943Y-52491808D01*
X130737373Y-52521479D01*
X130701143Y-52527200D01*
X130667256Y-52521943D01*
X130645939Y-52497148D01*
X130634307Y-52439282D01*
X130629480Y-52334808D01*
X130628571Y-52186386D01*
X130628571Y-51845572D01*
X130844675Y-51842530D01*
X130962420Y-51845054D01*
X130962420Y-51845054D01*
G37*
X130962420Y-51845054D02*
X131047459Y-51854703D01*
X131077314Y-51866244D01*
X131074779Y-51919141D01*
X131030104Y-51974111D01*
X130968651Y-52006578D01*
X130934144Y-52004982D01*
X130856814Y-51999729D01*
X130805581Y-52055742D01*
X130778799Y-52176003D01*
X130773714Y-52295786D01*
X130771366Y-52421967D01*
X130760943Y-52491808D01*
X130737373Y-52521479D01*
X130701143Y-52527200D01*
X130667256Y-52521943D01*
X130645939Y-52497148D01*
X130634307Y-52439282D01*
X130629480Y-52334808D01*
X130628571Y-52186386D01*
X130628571Y-51845572D01*
X130844675Y-51842530D01*
X130962420Y-51845054D01*
G36*
X131473674Y-51861792D02*
G01*
X131549169Y-51899552D01*
X131587002Y-51948318D01*
X131571750Y-52002275D01*
X131557092Y-52016515D01*
X131491947Y-52041855D01*
X131429177Y-52020441D01*
X131331279Y-52000874D01*
X131251947Y-52041316D01*
X131211406Y-52129224D01*
X131209698Y-52156548D01*
X131225329Y-52272712D01*
X131276632Y-52329750D01*
X131372741Y-52336081D01*
X131399716Y-52331711D01*
X131507388Y-52327517D01*
X131572509Y-52355185D01*
X131585326Y-52404351D01*
X131536084Y-52464647D01*
X131529370Y-52469502D01*
X131404796Y-52519497D01*
X131269863Y-52516956D01*
X131154480Y-52463025D01*
X131145085Y-52454772D01*
X131073117Y-52347313D01*
X131041537Y-52212548D01*
X131049158Y-52073206D01*
X131094795Y-51952018D01*
X131175448Y-51872670D01*
X131271391Y-51842538D01*
X131375940Y-51840849D01*
X131473674Y-51861792D01*
X131473674Y-51861792D01*
G37*
X131473674Y-51861792D02*
X131549169Y-51899552D01*
X131587002Y-51948318D01*
X131571750Y-52002275D01*
X131557092Y-52016515D01*
X131491947Y-52041855D01*
X131429177Y-52020441D01*
X131331279Y-52000874D01*
X131251947Y-52041316D01*
X131211406Y-52129224D01*
X131209698Y-52156548D01*
X131225329Y-52272712D01*
X131276632Y-52329750D01*
X131372741Y-52336081D01*
X131399716Y-52331711D01*
X131507388Y-52327517D01*
X131572509Y-52355185D01*
X131585326Y-52404351D01*
X131536084Y-52464647D01*
X131529370Y-52469502D01*
X131404796Y-52519497D01*
X131269863Y-52516956D01*
X131154480Y-52463025D01*
X131145085Y-52454772D01*
X131073117Y-52347313D01*
X131041537Y-52212548D01*
X131049158Y-52073206D01*
X131094795Y-51952018D01*
X131175448Y-51872670D01*
X131271391Y-51842538D01*
X131375940Y-51840849D01*
X131473674Y-51861792D01*
G36*
X132019233Y-51862881D02*
G01*
X132112103Y-51937533D01*
X132151271Y-52060711D01*
X132152571Y-52093829D01*
X132152571Y-52236914D01*
X131954139Y-52236914D01*
X131838672Y-52240822D01*
X131782765Y-52254994D01*
X131773703Y-52283105D01*
X131775516Y-52288537D01*
X131833041Y-52352197D01*
X131922516Y-52362167D01*
X131978005Y-52342099D01*
X132050194Y-52323034D01*
X132111447Y-52362590D01*
X132149984Y-52412257D01*
X132131865Y-52449981D01*
X132100279Y-52474989D01*
X131979484Y-52523424D01*
X131843327Y-52517238D01*
X131720991Y-52459099D01*
X131697351Y-52438135D01*
X131637981Y-52359193D01*
X131612106Y-52260781D01*
X131608286Y-52172834D01*
X131628150Y-52032265D01*
X131793408Y-52032265D01*
X131803778Y-52068123D01*
X131870289Y-52089850D01*
X131906347Y-52091771D01*
X131982434Y-52088400D01*
X131996635Y-52070940D01*
X131963589Y-52032381D01*
X131894499Y-51994018D01*
X131846956Y-51994956D01*
X131793408Y-52032265D01*
X131628150Y-52032265D01*
X131631609Y-52007794D01*
X131700453Y-51897175D01*
X131813133Y-51843106D01*
X131873768Y-51837771D01*
X132019233Y-51862881D01*
X132019233Y-51862881D01*
G37*
X132019233Y-51862881D02*
X132112103Y-51937533D01*
X132151271Y-52060711D01*
X132152571Y-52093829D01*
X132152571Y-52236914D01*
X131954139Y-52236914D01*
X131838672Y-52240822D01*
X131782765Y-52254994D01*
X131773703Y-52283105D01*
X131775516Y-52288537D01*
X131833041Y-52352197D01*
X131922516Y-52362167D01*
X131978005Y-52342099D01*
X132050194Y-52323034D01*
X132111447Y-52362590D01*
X132149984Y-52412257D01*
X132131865Y-52449981D01*
X132100279Y-52474989D01*
X131979484Y-52523424D01*
X131843327Y-52517238D01*
X131720991Y-52459099D01*
X131697351Y-52438135D01*
X131637981Y-52359193D01*
X131612106Y-52260781D01*
X131608286Y-52172834D01*
X131628150Y-52032265D01*
X131793408Y-52032265D01*
X131803778Y-52068123D01*
X131870289Y-52089850D01*
X131906347Y-52091771D01*
X131982434Y-52088400D01*
X131996635Y-52070940D01*
X131963589Y-52032381D01*
X131894499Y-51994018D01*
X131846956Y-51994956D01*
X131793408Y-52032265D01*
X131628150Y-52032265D01*
X131631609Y-52007794D01*
X131700453Y-51897175D01*
X131813133Y-51843106D01*
X131873768Y-51837771D01*
X132019233Y-51862881D01*
G36*
X129445551Y-47291389D02*
G01*
X129474645Y-47435167D01*
X129502481Y-47550312D01*
X129524585Y-47619125D01*
X129531146Y-47630007D01*
X129577389Y-47655054D01*
X129668880Y-47696206D01*
X129754554Y-47731834D01*
X129950965Y-47810948D01*
X130214055Y-47629074D01*
X130335332Y-47547553D01*
X130434876Y-47484930D01*
X130497210Y-47450764D01*
X130508550Y-47447200D01*
X130547430Y-47471665D01*
X130620520Y-47535340D01*
X130713313Y-47623646D01*
X130811301Y-47722005D01*
X130899978Y-47815837D01*
X130964836Y-47890564D01*
X130991368Y-47931605D01*
X130991428Y-47932472D01*
X130971795Y-47973813D01*
X130919420Y-48058445D01*
X130844091Y-48170855D01*
X130811537Y-48217553D01*
X130631645Y-48472886D01*
X130688067Y-48604115D01*
X130735697Y-48718856D01*
X130776730Y-48823959D01*
X130780000Y-48832850D01*
X130846223Y-48921827D01*
X130912541Y-48949409D01*
X131000429Y-48966325D01*
X131128246Y-48990543D01*
X131236357Y-49010836D01*
X131463143Y-49053213D01*
X131463143Y-49764211D01*
X131185064Y-49809070D01*
X131043840Y-49837884D01*
X130926227Y-49872792D01*
X130854722Y-49906922D01*
X130849278Y-49911636D01*
X130805939Y-49977161D01*
X130755571Y-50084644D01*
X130723556Y-50169441D01*
X130655541Y-50369538D01*
X130823485Y-50609784D01*
X130901850Y-50725640D01*
X130960694Y-50819785D01*
X130989923Y-50875839D01*
X130991429Y-50882306D01*
X130966928Y-50921662D01*
X130903154Y-50995132D01*
X130814701Y-51088195D01*
X130716162Y-51186334D01*
X130622130Y-51275029D01*
X130547197Y-51339761D01*
X130505958Y-51366013D01*
X130505203Y-51366057D01*
X130463089Y-51346284D01*
X130378791Y-51293823D01*
X130268604Y-51218961D01*
X130239003Y-51198008D01*
X130003504Y-51029960D01*
X129878117Y-51089753D01*
X129791278Y-51124574D01*
X129733755Y-51135677D01*
X129727333Y-51133849D01*
X129705699Y-51096471D01*
X129662460Y-51003455D01*
X129602810Y-50866605D01*
X129531943Y-50697723D01*
X129485824Y-50585002D01*
X129269711Y-50051851D01*
X129406646Y-49941998D01*
X129564507Y-49775885D01*
X129655955Y-49588251D01*
X129679161Y-49386783D01*
X129632294Y-49179167D01*
X129603500Y-49115253D01*
X129482042Y-48945369D01*
X129325495Y-48829911D01*
X129146982Y-48769061D01*
X128959628Y-48763005D01*
X128776556Y-48811925D01*
X128610889Y-48916005D01*
X128475750Y-49075429D01*
X128461649Y-49099273D01*
X128391141Y-49292212D01*
X128387807Y-49491883D01*
X128448792Y-49685986D01*
X128571239Y-49862221D01*
X128657353Y-49941998D01*
X128794289Y-50051851D01*
X128578176Y-50585002D01*
X128503046Y-50767528D01*
X128435990Y-50925164D01*
X128382204Y-51046104D01*
X128346882Y-51118546D01*
X128336667Y-51133849D01*
X128290583Y-51129797D01*
X128208331Y-51100024D01*
X128185883Y-51089753D01*
X128060496Y-51029960D01*
X127824997Y-51198008D01*
X127710587Y-51276899D01*
X127617647Y-51335921D01*
X127562629Y-51364768D01*
X127556772Y-51366057D01*
X127518145Y-51341851D01*
X127442771Y-51277160D01*
X127344143Y-51183871D01*
X127298309Y-51138295D01*
X127197391Y-51033260D01*
X127119759Y-50946348D01*
X127077177Y-50891004D01*
X127072571Y-50880282D01*
X127092078Y-50838269D01*
X127143883Y-50753565D01*
X127217911Y-50642395D01*
X127240515Y-50609784D01*
X127408459Y-50369538D01*
X127340444Y-50169441D01*
X127293136Y-50049086D01*
X127243482Y-49951465D01*
X127214722Y-49911636D01*
X127152247Y-49878230D01*
X127040225Y-49842996D01*
X126901153Y-49812806D01*
X126878936Y-49809070D01*
X126600857Y-49764211D01*
X126600857Y-49053213D01*
X126827643Y-49010836D01*
X126964789Y-48985064D01*
X127086727Y-48961904D01*
X127151459Y-48949409D01*
X127246214Y-48896820D01*
X127284000Y-48832850D01*
X127323028Y-48731980D01*
X127370938Y-48615787D01*
X127375933Y-48604115D01*
X127432355Y-48472886D01*
X127252463Y-48217553D01*
X127170944Y-48098375D01*
X127108693Y-48000758D01*
X127075516Y-47940350D01*
X127072571Y-47930447D01*
X127097019Y-47891535D01*
X127160650Y-47818385D01*
X127248894Y-47725517D01*
X127347182Y-47627450D01*
X127440945Y-47538705D01*
X127515612Y-47473802D01*
X127556614Y-47447260D01*
X127557475Y-47447200D01*
X127598645Y-47466598D01*
X127683760Y-47518460D01*
X127797560Y-47593287D01*
X127852247Y-47630666D01*
X128117640Y-47814132D01*
X128327520Y-47725625D01*
X128433699Y-47677877D01*
X128505535Y-47630765D01*
X128553069Y-47568201D01*
X128586337Y-47474101D01*
X128615377Y-47332377D01*
X128631462Y-47238557D01*
X128675700Y-46975486D01*
X129386952Y-46975486D01*
X129445551Y-47291389D01*
X129445551Y-47291389D01*
G37*
X129445551Y-47291389D02*
X129474645Y-47435167D01*
X129502481Y-47550312D01*
X129524585Y-47619125D01*
X129531146Y-47630007D01*
X129577389Y-47655054D01*
X129668880Y-47696206D01*
X129754554Y-47731834D01*
X129950965Y-47810948D01*
X130214055Y-47629074D01*
X130335332Y-47547553D01*
X130434876Y-47484930D01*
X130497210Y-47450764D01*
X130508550Y-47447200D01*
X130547430Y-47471665D01*
X130620520Y-47535340D01*
X130713313Y-47623646D01*
X130811301Y-47722005D01*
X130899978Y-47815837D01*
X130964836Y-47890564D01*
X130991368Y-47931605D01*
X130991428Y-47932472D01*
X130971795Y-47973813D01*
X130919420Y-48058445D01*
X130844091Y-48170855D01*
X130811537Y-48217553D01*
X130631645Y-48472886D01*
X130688067Y-48604115D01*
X130735697Y-48718856D01*
X130776730Y-48823959D01*
X130780000Y-48832850D01*
X130846223Y-48921827D01*
X130912541Y-48949409D01*
X131000429Y-48966325D01*
X131128246Y-48990543D01*
X131236357Y-49010836D01*
X131463143Y-49053213D01*
X131463143Y-49764211D01*
X131185064Y-49809070D01*
X131043840Y-49837884D01*
X130926227Y-49872792D01*
X130854722Y-49906922D01*
X130849278Y-49911636D01*
X130805939Y-49977161D01*
X130755571Y-50084644D01*
X130723556Y-50169441D01*
X130655541Y-50369538D01*
X130823485Y-50609784D01*
X130901850Y-50725640D01*
X130960694Y-50819785D01*
X130989923Y-50875839D01*
X130991429Y-50882306D01*
X130966928Y-50921662D01*
X130903154Y-50995132D01*
X130814701Y-51088195D01*
X130716162Y-51186334D01*
X130622130Y-51275029D01*
X130547197Y-51339761D01*
X130505958Y-51366013D01*
X130505203Y-51366057D01*
X130463089Y-51346284D01*
X130378791Y-51293823D01*
X130268604Y-51218961D01*
X130239003Y-51198008D01*
X130003504Y-51029960D01*
X129878117Y-51089753D01*
X129791278Y-51124574D01*
X129733755Y-51135677D01*
X129727333Y-51133849D01*
X129705699Y-51096471D01*
X129662460Y-51003455D01*
X129602810Y-50866605D01*
X129531943Y-50697723D01*
X129485824Y-50585002D01*
X129269711Y-50051851D01*
X129406646Y-49941998D01*
X129564507Y-49775885D01*
X129655955Y-49588251D01*
X129679161Y-49386783D01*
X129632294Y-49179167D01*
X129603500Y-49115253D01*
X129482042Y-48945369D01*
X129325495Y-48829911D01*
X129146982Y-48769061D01*
X128959628Y-48763005D01*
X128776556Y-48811925D01*
X128610889Y-48916005D01*
X128475750Y-49075429D01*
X128461649Y-49099273D01*
X128391141Y-49292212D01*
X128387807Y-49491883D01*
X128448792Y-49685986D01*
X128571239Y-49862221D01*
X128657353Y-49941998D01*
X128794289Y-50051851D01*
X128578176Y-50585002D01*
X128503046Y-50767528D01*
X128435990Y-50925164D01*
X128382204Y-51046104D01*
X128346882Y-51118546D01*
X128336667Y-51133849D01*
X128290583Y-51129797D01*
X128208331Y-51100024D01*
X128185883Y-51089753D01*
X128060496Y-51029960D01*
X127824997Y-51198008D01*
X127710587Y-51276899D01*
X127617647Y-51335921D01*
X127562629Y-51364768D01*
X127556772Y-51366057D01*
X127518145Y-51341851D01*
X127442771Y-51277160D01*
X127344143Y-51183871D01*
X127298309Y-51138295D01*
X127197391Y-51033260D01*
X127119759Y-50946348D01*
X127077177Y-50891004D01*
X127072571Y-50880282D01*
X127092078Y-50838269D01*
X127143883Y-50753565D01*
X127217911Y-50642395D01*
X127240515Y-50609784D01*
X127408459Y-50369538D01*
X127340444Y-50169441D01*
X127293136Y-50049086D01*
X127243482Y-49951465D01*
X127214722Y-49911636D01*
X127152247Y-49878230D01*
X127040225Y-49842996D01*
X126901153Y-49812806D01*
X126878936Y-49809070D01*
X126600857Y-49764211D01*
X126600857Y-49053213D01*
X126827643Y-49010836D01*
X126964789Y-48985064D01*
X127086727Y-48961904D01*
X127151459Y-48949409D01*
X127246214Y-48896820D01*
X127284000Y-48832850D01*
X127323028Y-48731980D01*
X127370938Y-48615787D01*
X127375933Y-48604115D01*
X127432355Y-48472886D01*
X127252463Y-48217553D01*
X127170944Y-48098375D01*
X127108693Y-48000758D01*
X127075516Y-47940350D01*
X127072571Y-47930447D01*
X127097019Y-47891535D01*
X127160650Y-47818385D01*
X127248894Y-47725517D01*
X127347182Y-47627450D01*
X127440945Y-47538705D01*
X127515612Y-47473802D01*
X127556614Y-47447260D01*
X127557475Y-47447200D01*
X127598645Y-47466598D01*
X127683760Y-47518460D01*
X127797560Y-47593287D01*
X127852247Y-47630666D01*
X128117640Y-47814132D01*
X128327520Y-47725625D01*
X128433699Y-47677877D01*
X128505535Y-47630765D01*
X128553069Y-47568201D01*
X128586337Y-47474101D01*
X128615377Y-47332377D01*
X128631462Y-47238557D01*
X128675700Y-46975486D01*
X129386952Y-46975486D01*
X129445551Y-47291389D01*
D10*
X96379400Y-50229400D02*
X96354400Y-50229400D01*
X88329400Y-50229400D02*
X88354400Y-50229400D01*
X88329400Y-45579400D02*
X88354400Y-45579400D01*
X96429400Y-44504400D02*
X96429400Y-50229400D01*
X88329400Y-45579400D02*
X88329400Y-50229400D01*
X75731000Y-45325400D02*
X75731000Y-49975400D01*
X83831000Y-44250400D02*
X83831000Y-49975400D01*
X75731000Y-45325400D02*
X75756000Y-45325400D01*
X75731000Y-49975400D02*
X75756000Y-49975400D01*
X83781000Y-49975400D02*
X83756000Y-49975400D01*
X61231000Y-54804800D02*
X65881000Y-54804800D01*
X60156000Y-46704800D02*
X65881000Y-46704800D01*
X61231000Y-54804800D02*
X61231000Y-54779800D01*
X65881000Y-54804800D02*
X65881000Y-54779800D01*
X65881000Y-46754800D02*
X65881000Y-46779800D01*
X70174000Y-68595000D02*
X70174000Y-70595000D01*
X98174000Y-68595000D02*
X98174000Y-54595000D01*
X69974000Y-68595000D02*
X69974000Y-54595000D01*
X97874000Y-68595000D02*
X98174000Y-68595000D01*
X97874000Y-54595000D02*
X98174000Y-54595000D01*
X69974000Y-54595000D02*
X70274000Y-54595000D01*
X69974000Y-68595000D02*
X70174000Y-68595000D01*
D12*
X65515748Y-72211000D02*
X66038252Y-72211000D01*
X65515748Y-70791000D02*
X66038252Y-70791000D01*
X62975748Y-62559000D02*
X63498252Y-62559000D01*
X62975748Y-61139000D02*
X63498252Y-61139000D01*
X66785748Y-62559000D02*
X67308252Y-62559000D01*
X66785748Y-61139000D02*
X67308252Y-61139000D01*
X61705748Y-72211000D02*
X62228252Y-72211000D01*
X61705748Y-70791000D02*
X62228252Y-70791000D01*
X59827000Y-66675000D02*
X59827000Y-70125000D01*
X59827000Y-66675000D02*
X59827000Y-64725000D01*
X68697000Y-66675000D02*
X68697000Y-68625000D01*
X68697000Y-66675000D02*
X68697000Y-64725000D01*
X114066000Y-51562000D02*
X114066000Y-53512000D01*
X114066000Y-51562000D02*
X114066000Y-49612000D01*
X124186000Y-51562000D02*
X124186000Y-53512000D01*
X124186000Y-51562000D02*
X124186000Y-48112000D01*
X102564000Y-69138000D02*
X102564000Y-70953000D01*
X102319000Y-69138000D02*
X102564000Y-69138000D01*
X102319000Y-65278000D02*
X102319000Y-69138000D01*
X102319000Y-61418000D02*
X102564000Y-61418000D01*
X102319000Y-65278000D02*
X102319000Y-61418000D01*
X120439000Y-69138000D02*
X120194000Y-69138000D01*
X120439000Y-65278000D02*
X120439000Y-69138000D01*
X120439000Y-61418000D02*
X120194000Y-61418000D01*
X120439000Y-65278000D02*
X120439000Y-61418000D01*
X102245000Y-51562000D02*
X102245000Y-53512000D01*
X102245000Y-51562000D02*
X102245000Y-49612000D01*
X111115000Y-51562000D02*
X111115000Y-53512000D01*
X111115000Y-51562000D02*
X111115000Y-48112000D01*
X123081000Y-46974000D02*
X118981000Y-46974000D01*
X118981000Y-46974000D02*
X118981000Y-44974000D01*
X118981000Y-44974000D02*
X123081000Y-44974000D01*
X123081000Y-44974000D02*
X123081000Y-46974000D01*
X122331000Y-44774000D02*
X122631000Y-44474000D01*
X122631000Y-44474000D02*
X122031000Y-44474000D01*
X122331000Y-44774000D02*
X122031000Y-44474000D01*
X126729748Y-72592000D02*
X127252252Y-72592000D01*
X126729748Y-71172000D02*
X127252252Y-71172000D01*
X51629000Y-80264000D02*
X51629000Y-78934000D01*
X51629000Y-78934000D02*
X52959000Y-78934000D01*
X54229000Y-78934000D02*
X133029000Y-78934000D01*
X133029000Y-81594000D02*
X133029000Y-78934000D01*
X54229000Y-81594000D02*
X133029000Y-81594000D01*
X54229000Y-81594000D02*
X54229000Y-78934000D01*
X133029000Y-82804000D02*
X133029000Y-84134000D01*
X133029000Y-84134000D02*
X131699000Y-84134000D01*
X130429000Y-84134000D02*
X51629000Y-84134000D01*
X51629000Y-81474000D02*
X51629000Y-84134000D01*
X130429000Y-81474000D02*
X51629000Y-81474000D01*
X130429000Y-81474000D02*
X130429000Y-84134000D01*
D10*
X96756780Y-48666304D02*
X97566304Y-48666304D01*
X97661542Y-48618685D01*
X97709161Y-48571066D01*
X97756780Y-48475828D01*
X97756780Y-48285352D01*
X97709161Y-48190114D01*
X97661542Y-48142495D01*
X97566304Y-48094876D01*
X96756780Y-48094876D01*
X97756780Y-47571066D02*
X97756780Y-47380590D01*
X97709161Y-47285352D01*
X97661542Y-47237733D01*
X97518685Y-47142495D01*
X97328209Y-47094876D01*
X96947257Y-47094876D01*
X96852019Y-47142495D01*
X96804400Y-47190114D01*
X96756780Y-47285352D01*
X96756780Y-47475828D01*
X96804400Y-47571066D01*
X96852019Y-47618685D01*
X96947257Y-47666304D01*
X97185352Y-47666304D01*
X97280590Y-47618685D01*
X97328209Y-47571066D01*
X97375828Y-47475828D01*
X97375828Y-47285352D01*
X97328209Y-47190114D01*
X97280590Y-47142495D01*
X97185352Y-47094876D01*
X84158380Y-48412304D02*
X84967904Y-48412304D01*
X85063142Y-48364685D01*
X85110761Y-48317066D01*
X85158380Y-48221828D01*
X85158380Y-48031352D01*
X85110761Y-47936114D01*
X85063142Y-47888495D01*
X84967904Y-47840876D01*
X84158380Y-47840876D01*
X84586952Y-47221828D02*
X84539333Y-47317066D01*
X84491714Y-47364685D01*
X84396476Y-47412304D01*
X84348857Y-47412304D01*
X84253619Y-47364685D01*
X84206000Y-47317066D01*
X84158380Y-47221828D01*
X84158380Y-47031352D01*
X84206000Y-46936114D01*
X84253619Y-46888495D01*
X84348857Y-46840876D01*
X84396476Y-46840876D01*
X84491714Y-46888495D01*
X84539333Y-46936114D01*
X84586952Y-47031352D01*
X84586952Y-47221828D01*
X84634571Y-47317066D01*
X84682190Y-47364685D01*
X84777428Y-47412304D01*
X84967904Y-47412304D01*
X85063142Y-47364685D01*
X85110761Y-47317066D01*
X85158380Y-47221828D01*
X85158380Y-47031352D01*
X85110761Y-46936114D01*
X85063142Y-46888495D01*
X84967904Y-46840876D01*
X84777428Y-46840876D01*
X84682190Y-46888495D01*
X84634571Y-46936114D01*
X84586952Y-47031352D01*
X62794095Y-45282180D02*
X62794095Y-46091704D01*
X62841714Y-46186942D01*
X62889333Y-46234561D01*
X62984571Y-46282180D01*
X63175047Y-46282180D01*
X63270285Y-46234561D01*
X63317904Y-46186942D01*
X63365523Y-46091704D01*
X63365523Y-45282180D01*
X63746476Y-45282180D02*
X64413142Y-45282180D01*
X63984571Y-46282180D01*
X68072095Y-55332380D02*
X68072095Y-56141904D01*
X68119714Y-56237142D01*
X68167333Y-56284761D01*
X68262571Y-56332380D01*
X68453047Y-56332380D01*
X68548285Y-56284761D01*
X68595904Y-56237142D01*
X68643523Y-56141904D01*
X68643523Y-55332380D01*
X69548285Y-55665714D02*
X69548285Y-56332380D01*
X69310190Y-55284761D02*
X69072095Y-55999047D01*
X69691142Y-55999047D01*
X65610333Y-73604380D02*
X65277000Y-73128190D01*
X65038904Y-73604380D02*
X65038904Y-72604380D01*
X65419857Y-72604380D01*
X65515095Y-72652000D01*
X65562714Y-72699619D01*
X65610333Y-72794857D01*
X65610333Y-72937714D01*
X65562714Y-73032952D01*
X65515095Y-73080571D01*
X65419857Y-73128190D01*
X65038904Y-73128190D01*
X65943666Y-72604380D02*
X66562714Y-72604380D01*
X66229380Y-72985333D01*
X66372238Y-72985333D01*
X66467476Y-73032952D01*
X66515095Y-73080571D01*
X66562714Y-73175809D01*
X66562714Y-73413904D01*
X66515095Y-73509142D01*
X66467476Y-73556761D01*
X66372238Y-73604380D01*
X66086523Y-73604380D01*
X65991285Y-73556761D01*
X65943666Y-73509142D01*
X63070333Y-60651380D02*
X62737000Y-60175190D01*
X62498904Y-60651380D02*
X62498904Y-59651380D01*
X62879857Y-59651380D01*
X62975095Y-59699000D01*
X63022714Y-59746619D01*
X63070333Y-59841857D01*
X63070333Y-59984714D01*
X63022714Y-60079952D01*
X62975095Y-60127571D01*
X62879857Y-60175190D01*
X62498904Y-60175190D01*
X63927476Y-59984714D02*
X63927476Y-60651380D01*
X63689380Y-59603761D02*
X63451285Y-60318047D01*
X64070333Y-60318047D01*
X66880333Y-60651380D02*
X66547000Y-60175190D01*
X66308904Y-60651380D02*
X66308904Y-59651380D01*
X66689857Y-59651380D01*
X66785095Y-59699000D01*
X66832714Y-59746619D01*
X66880333Y-59841857D01*
X66880333Y-59984714D01*
X66832714Y-60079952D01*
X66785095Y-60127571D01*
X66689857Y-60175190D01*
X66308904Y-60175190D01*
X67832714Y-60651380D02*
X67261285Y-60651380D01*
X67547000Y-60651380D02*
X67547000Y-59651380D01*
X67451761Y-59794238D01*
X67356523Y-59889476D01*
X67261285Y-59937095D01*
X61809333Y-73604380D02*
X61476000Y-73128190D01*
X61237904Y-73604380D02*
X61237904Y-72604380D01*
X61618857Y-72604380D01*
X61714095Y-72652000D01*
X61761714Y-72699619D01*
X61809333Y-72794857D01*
X61809333Y-72937714D01*
X61761714Y-73032952D01*
X61714095Y-73080571D01*
X61618857Y-73128190D01*
X61237904Y-73128190D01*
X62190285Y-72699619D02*
X62237904Y-72652000D01*
X62333142Y-72604380D01*
X62571238Y-72604380D01*
X62666476Y-72652000D01*
X62714095Y-72699619D01*
X62761714Y-72794857D01*
X62761714Y-72890095D01*
X62714095Y-73032952D01*
X62142666Y-73604380D01*
X62761714Y-73604380D01*
X57785095Y-66127380D02*
X57785095Y-66936904D01*
X57832714Y-67032142D01*
X57880333Y-67079761D01*
X57975571Y-67127380D01*
X58166047Y-67127380D01*
X58261285Y-67079761D01*
X58308904Y-67032142D01*
X58356523Y-66936904D01*
X58356523Y-66127380D01*
X59261285Y-66127380D02*
X59070809Y-66127380D01*
X58975571Y-66175000D01*
X58927952Y-66222619D01*
X58832714Y-66365476D01*
X58785095Y-66555952D01*
X58785095Y-66936904D01*
X58832714Y-67032142D01*
X58880333Y-67079761D01*
X58975571Y-67127380D01*
X59166047Y-67127380D01*
X59261285Y-67079761D01*
X59308904Y-67032142D01*
X59356523Y-66936904D01*
X59356523Y-66698809D01*
X59308904Y-66603571D01*
X59261285Y-66555952D01*
X59166047Y-66508333D01*
X58975571Y-66508333D01*
X58880333Y-66555952D01*
X58832714Y-66603571D01*
X58785095Y-66698809D01*
X112141095Y-50887380D02*
X112141095Y-51696904D01*
X112188714Y-51792142D01*
X112236333Y-51839761D01*
X112331571Y-51887380D01*
X112522047Y-51887380D01*
X112617285Y-51839761D01*
X112664904Y-51792142D01*
X112712523Y-51696904D01*
X112712523Y-50887380D01*
X113093476Y-50887380D02*
X113712523Y-50887380D01*
X113379190Y-51268333D01*
X113522047Y-51268333D01*
X113617285Y-51315952D01*
X113664904Y-51363571D01*
X113712523Y-51458809D01*
X113712523Y-51696904D01*
X113664904Y-51792142D01*
X113617285Y-51839761D01*
X113522047Y-51887380D01*
X113236333Y-51887380D01*
X113141095Y-51839761D01*
X113093476Y-51792142D01*
X100457095Y-64730380D02*
X100457095Y-65539904D01*
X100504714Y-65635142D01*
X100552333Y-65682761D01*
X100647571Y-65730380D01*
X100838047Y-65730380D01*
X100933285Y-65682761D01*
X100980904Y-65635142D01*
X101028523Y-65539904D01*
X101028523Y-64730380D01*
X101457095Y-64825619D02*
X101504714Y-64778000D01*
X101599952Y-64730380D01*
X101838047Y-64730380D01*
X101933285Y-64778000D01*
X101980904Y-64825619D01*
X102028523Y-64920857D01*
X102028523Y-65016095D01*
X101980904Y-65158952D01*
X101409476Y-65730380D01*
X102028523Y-65730380D01*
X100330095Y-51014380D02*
X100330095Y-51823904D01*
X100377714Y-51919142D01*
X100425333Y-51966761D01*
X100520571Y-52014380D01*
X100711047Y-52014380D01*
X100806285Y-51966761D01*
X100853904Y-51919142D01*
X100901523Y-51823904D01*
X100901523Y-51014380D01*
X101901523Y-52014380D02*
X101330095Y-52014380D01*
X101615809Y-52014380D02*
X101615809Y-51014380D01*
X101520571Y-51157238D01*
X101425333Y-51252476D01*
X101330095Y-51300095D01*
D13*
X119217333Y-44303190D02*
X119217333Y-44660333D01*
X119193523Y-44731761D01*
X119145904Y-44779380D01*
X119074476Y-44803190D01*
X119026857Y-44803190D01*
X119455428Y-44803190D02*
X119455428Y-44303190D01*
X119645904Y-44303190D01*
X119693523Y-44327000D01*
X119717333Y-44350809D01*
X119741142Y-44398428D01*
X119741142Y-44469857D01*
X119717333Y-44517476D01*
X119693523Y-44541285D01*
X119645904Y-44565095D01*
X119455428Y-44565095D01*
X120217333Y-44803190D02*
X119931619Y-44803190D01*
X120074476Y-44803190D02*
X120074476Y-44303190D01*
X120026857Y-44374619D01*
X119979238Y-44422238D01*
X119931619Y-44446047D01*
D10*
X126824333Y-70589142D02*
X126776714Y-70636761D01*
X126633857Y-70684380D01*
X126538619Y-70684380D01*
X126395761Y-70636761D01*
X126300523Y-70541523D01*
X126252904Y-70446285D01*
X126205285Y-70255809D01*
X126205285Y-70112952D01*
X126252904Y-69922476D01*
X126300523Y-69827238D01*
X126395761Y-69732000D01*
X126538619Y-69684380D01*
X126633857Y-69684380D01*
X126776714Y-69732000D01*
X126824333Y-69779619D01*
X127395761Y-70112952D02*
X127300523Y-70065333D01*
X127252904Y-70017714D01*
X127205285Y-69922476D01*
X127205285Y-69874857D01*
X127252904Y-69779619D01*
X127300523Y-69732000D01*
X127395761Y-69684380D01*
X127586238Y-69684380D01*
X127681476Y-69732000D01*
X127729095Y-69779619D01*
X127776714Y-69874857D01*
X127776714Y-69922476D01*
X127729095Y-70017714D01*
X127681476Y-70065333D01*
X127586238Y-70112952D01*
X127395761Y-70112952D01*
X127300523Y-70160571D01*
X127252904Y-70208190D01*
X127205285Y-70303428D01*
X127205285Y-70493904D01*
X127252904Y-70589142D01*
X127300523Y-70636761D01*
X127395761Y-70684380D01*
X127586238Y-70684380D01*
X127681476Y-70636761D01*
X127729095Y-70589142D01*
X127776714Y-70493904D01*
X127776714Y-70303428D01*
X127729095Y-70208190D01*
X127681476Y-70160571D01*
X127586238Y-70112952D01*
D13*
X50780190Y-80430666D02*
X51137333Y-80430666D01*
X51208761Y-80454476D01*
X51256380Y-80502095D01*
X51280190Y-80573523D01*
X51280190Y-80621142D01*
X51280190Y-79930666D02*
X51280190Y-80216380D01*
X51280190Y-80073523D02*
X50780190Y-80073523D01*
X50851619Y-80121142D01*
X50899238Y-80168761D01*
X50923047Y-80216380D01*
X133457190Y-82970666D02*
X133814333Y-82970666D01*
X133885761Y-82994476D01*
X133933380Y-83042095D01*
X133957190Y-83113523D01*
X133957190Y-83161142D01*
X133504809Y-82756380D02*
X133481000Y-82732571D01*
X133457190Y-82684952D01*
X133457190Y-82565904D01*
X133481000Y-82518285D01*
X133504809Y-82494476D01*
X133552428Y-82470666D01*
X133600047Y-82470666D01*
X133671476Y-82494476D01*
X133957190Y-82780190D01*
X133957190Y-82470666D01*
M02*
